<svg width="217.04129638671876px" height="120.8px" xmlns="http://www.w3.org/2000/svg" viewBox="141.47935180664064 14.600000000000001 217.04129638671876 120.8" style="background: rgba(0, 0, 0, 0);" preserveAspectRatio="xMidYMid"><defs><filter id="editing-hole" x="-100%" y="-100%" width="300%" height="300%"><feFlood flood-color="#000" result="black"></feFlood><feMorphology operator="dilate" radius="2" in="SourceGraphic" result="erode"></feMorphology><feGaussianBlur in="erode" stdDeviation="4" result="blur"></feGaussianBlur><feOffset in="blur" dx="2" dy="2" result="offset"></feOffset><feComposite operator="atop" in="offset" in2="black" result="merge"></feComposite><feComposite operator="in" in="merge" in2="SourceGraphic" result="inner-shadow"></feComposite></filter></defs><g filter="url(#editing-hole)"><g transform="translate(178.79053282737732, 98.68000221252441)"><path d="M33.28-7.10L33.28-7.10L33.28-7.10Q33.28-4.29 36.16-3.46L36.16-3.46L36.16-3.46Q35.46-1.09 32.70 0.19L32.70 0.19L32.70 0.19Q30.40 1.28 27.87 1.28L27.87 1.28L27.87 1.28Q25.34 1.28 24.03 0.61L24.03 0.61L24.03 0.61Q22.72-0.06 22.02-1.15L22.02-1.15L22.02-1.15Q20.86-2.82 20.86-5.95L20.86-5.95L20.86-5.95Q20.86-7.81 21.89-12.93L21.89-12.93L22.78-17.79L22.78-17.79Q23.87-23.36 23.87-25.41L23.87-25.41L23.87-25.41Q23.87-28.99 21.89-28.99L21.89-28.99L21.89-28.99Q19.39-28.99 17.79-25.34L17.79-25.34L17.79-25.34Q17.15-23.94 16.70-21.82L16.70-21.82L12.35 0L-0.51 1.28L8.51-44.80L21.38-46.08L20.86-43.52L20.86-43.52Q19.07-33.66 17.54-30.34L17.54-30.34L17.54-30.34Q21.12-33.92 27.71-33.92L27.71-33.92L27.71-33.92Q34.69-33.92 35.97-29.31L35.97-29.31L35.97-29.31Q36.42-27.84 36.42-26.56L36.42-26.56L36.42-26.56Q36.42-25.28 36.32-24.29L36.32-24.29L36.32-24.29Q36.22-23.30 35.90-21.50L35.90-21.50L35.07-16.90L33.60-9.66L33.60-9.66Q33.28-8.19 33.28-7.10ZM42.37-6.40L42.37-6.40L42.37-6.40Q42.37-8.13 43.26-12.48L43.26-12.48L46.66-29.76L42.88-29.76L43.14-31.68L43.14-31.68Q50.82-33.98 58.24-39.62L58.24-39.62L61.31-39.62L59.78-32.64L64.77-32.64L64.19-29.76L59.26-29.76L56-12.48L56-12.48Q55.17-8.51 55.17-7.17L55.17-7.17L55.17-7.17Q55.17-4.10 57.86-3.46L57.86-3.46L57.86-3.46Q57.22-1.28 54.91 0L54.91 0L54.91 0Q52.61 1.28 49.34 1.28L49.34 1.28L49.34 1.28Q46.08 1.28 44.22-0.77L44.22-0.77L44.22-0.77Q42.37-2.82 42.37-6.40ZM110.53 1.28L110.53 1.28L110.53 1.28Q102.78 1.28 102.78-4.74L102.78-4.74L102.78-4.74Q102.78-7.36 103.90-12.45L103.90-12.45L103.90-12.45Q105.02-17.54 105.41-19.58L105.41-19.58L105.41-19.58Q106.30-24.26 106.30-25.73L106.30-25.73L106.30-25.73Q106.30-28.99 103.87-28.99L103.87-28.99L103.87-28.99Q102.27-28.99 100.74-26.78L100.74-26.78L100.74-26.78Q99.20-24.58 98.50-20.16L98.50-20.16L94.53 0L82.05 1.28L85.50-16.13L85.50-16.13Q86.08-19.01 86.59-22.27L86.59-22.27L86.59-22.27Q87.10-25.54 87.10-26.05L87.10-26.05L87.10-26.05Q87.10-28.99 84.93-28.99L84.93-28.99L84.93-28.99Q83.46-28.99 81.86-26.82L81.86-26.82L81.86-26.82Q80.26-24.64 79.36-20.16L79.36-20.16L75.46 0L62.85 1.28L69.57-32.64L80-33.92L78.91-27.46L78.91-27.46Q80.58-30.91 83.65-32.42L83.65-32.42L83.65-32.42Q86.72-33.92 91.52-33.92L91.52-33.92L91.52-33.92Q94.27-33.92 96.06-32.58L96.06-32.58L96.06-32.58Q97.86-31.23 98.43-29.06L98.43-29.06L98.43-29.06Q99.52-31.30 102.30-32.61L102.30-32.61L102.30-32.61Q105.09-33.92 108.51-33.92L108.51-33.92L108.51-33.92Q111.94-33.92 113.63-33.18L113.63-33.18L113.63-33.18Q115.33-32.45 116.35-31.23L116.35-31.23L116.35-31.23Q118.08-28.99 118.08-24.90L118.08-24.90L118.08-24.90Q118.08-20.86 116.35-12.48L116.35-12.48L116.35-12.48Q115.46-8.38 115.46-6.88L115.46-6.88L115.46-6.88Q115.46-5.38 116.32-4.48L116.32-4.48L116.32-4.48Q117.18-3.58 118.46-3.46L118.46-3.46L118.46-3.46Q117.82-1.28 115.62 0L115.62 0L115.62 0Q113.41 1.28 110.53 1.28ZM138.69-3.52L138.69-3.52L138.69-3.52Q136.70 1.28 130.37 1.28L130.37 1.28L130.37 1.28Q127.17 1.28 125.12-0.96L125.12-0.96L125.12-0.96Q123.46-2.82 123.46-4.93L123.46-4.93L123.46-4.93Q123.46-9.73 125.70-20.22L125.70-20.22L130.37-44.80L143.36-46.08L137.15-13.70L137.15-13.70Q136.06-8.96 136.06-7.30L136.06-7.30L136.06-7.30Q136.06-3.65 138.69-3.52Z" fill="#ccc"></path></g></g><style>text {
  font-size: 64px;
  font-family: Arial Black;
  dominant-baseline: central;
  text-anchor: middle;
}</style></svg>