<?xml version="1.0" encoding="UTF-8"?>
<svg version="1.1" xmlns="http://www.w3.org/2000/svg" width="256" height="256">
<path d="M0 0 C60.06 0 120.12 0 182 0 C181.38854173 12.2291653 180.72590062 24.36131043 179.6171875 36.53979492 C179.48040266 38.07489123 179.34395965 39.61001804 179.20782471 41.14517212 C178.84356324 45.24188818 178.47456057 49.33816367 178.10453033 53.43436217 C177.71523829 57.75265428 177.33030824 62.07133548 176.94482422 66.38996887 C176.29848384 73.62422651 175.64928852 80.85822303 174.99804688 88.09204102 C174.16400417 97.35647731 173.33447559 106.62131189 172.50643921 115.88628674 C171.7906072 123.89572682 171.07303473 131.90501083 170.35501862 139.91425538 C170.20177683 141.62390444 170.04859377 143.33355877 169.89546967 145.04321837 C169.45958958 149.9098718 169.02278131 154.77643996 168.58443451 159.64287186 C168.4522973 161.1113439 168.32047533 162.57984436 168.18900299 164.04837608 C167.53280849 171.37524188 166.85002535 178.69289933 166 186 C156.8844334 188.62009354 147.76569036 191.22873962 138.64274597 193.82302856 C134.40621112 195.02815416 130.17085343 196.23711997 125.93798828 197.45507812 C121.84923288 198.63141396 117.75764758 199.79737882 113.66394043 200.95635986 C112.10648531 201.39922756 110.55006591 201.84575533 108.99475098 202.29608154 C106.80776597 202.92860984 104.6173826 203.54774969 102.42578125 204.1640625 C101.18223877 204.51936035 99.93869629 204.8746582 98.6574707 205.24072266 C91.92055137 206.63928211 86.37063853 206.10327612 79.78955078 204.27172852 C79.11859879 204.08801697 78.44764679 203.90430542 77.75636292 203.71502686 C75.56650333 203.1127704 73.3810056 202.49609575 71.1953125 201.87890625 C69.66477239 201.45448044 68.13399629 201.03090484 66.60299683 200.60813904 C63.40903668 199.72399585 60.21699607 198.8333452 57.02636719 197.93725586 C52.9329933 196.78763267 48.83673027 195.64876897 44.73921394 194.51400852 C40.82784642 193.43054056 36.91769074 192.34273464 33.0078125 191.25390625 C32.26123508 191.04618654 31.51465767 190.83846684 30.7454567 190.62445259 C28.64099924 190.0378712 26.53739996 189.44831863 24.43408203 188.85766602 C23.23687531 188.52235367 22.03966858 188.18704132 20.80618286 187.84156799 C18 187 18 187 16 186 C15.59607983 184.14646912 15.59607983 184.14646912 15.37553406 181.66967773 C15.24341522 180.26400795 15.24341522 180.26400795 15.10862732 178.8299408 C15.02081497 177.79164627 14.93300262 176.75335175 14.8425293 175.68359375 C14.74297943 174.59482437 14.64342957 173.50605499 14.54086304 172.3842926 C14.20961712 168.73611359 13.89194359 165.08687957 13.57421875 161.4375 C13.34324011 158.86255765 13.11143928 156.28768893 12.87886047 153.71289062 C12.32537331 147.56239018 11.78042364 141.4111861 11.23946267 135.25957298 C10.58559757 127.82982396 9.91866129 120.40126184 9.25195312 112.97265625 C8.23710034 101.65158621 7.23306388 90.32959135 6.23613715 79.0069294 C5.4621851 70.21691618 4.68190883 61.42750021 3.89461422 52.63867188 C3.42101086 47.35063177 2.95082674 42.06228893 2.4808445 36.77392578 C2.25883083 34.28260823 2.03564777 31.79139457 1.81122398 29.30029297 C1.50215961 25.86714293 1.19747031 22.43363065 0.89379883 19 C0.80250261 17.99783447 0.7112064 16.99566895 0.61714363 15.96313477 C0.53516668 15.02655029 0.45318974 14.08996582 0.36872864 13.125 C0.26122394 11.92230469 0.26122394 11.92230469 0.15154743 10.6953125 C-0.04860915 7.13547305 0 3.56546204 0 0 Z " fill="#FE4C1E" transform="translate(37,50)"/>
<path d="M0 0 C37.62 0 75.24 0 114 0 C113.34 7.59 112.68 15.18 112 23 C83.29 23 54.58 23 25 23 C25.66 27.95 26.32 32.9 27 38 C27 40.64 27 43.28 27 46 C54.39 46 81.78 46 110 46 C108.78085361 60.62975664 107.53117979 75.23226579 106.05664062 89.83398438 C105.19274982 98.54978319 104.53350736 107.25868703 104 116 C102.17122862 116.50799205 100.34245498 117.01597595 98.51367188 117.52392578 C96.90295758 117.971383 95.29228132 118.41897715 93.68164062 118.86669922 C89.50477198 120.02757059 85.3273688 121.18641779 81.1484375 122.33984375 C79.98707275 122.66130371 79.98707275 122.66130371 78.80224609 122.98925781 C77.27204485 123.41180755 75.7411202 123.83174662 74.20947266 124.24902344 C70.24212098 125.33796284 66.37918753 126.56160067 62.5 127.9375 C57.25307103 129.50800935 53.16467889 128.50513499 48 127 C46.97390625 126.71640625 45.9478125 126.4328125 44.890625 126.140625 C41.93401502 125.30950422 38.98634986 124.45179462 36.0390625 123.58837891 C31.44484505 122.26270074 26.82909365 121.01181485 22.21679688 119.75073242 C21.49556641 119.5519751 20.77433594 119.35321777 20.03125 119.1484375 C19.39767578 118.97489746 18.76410156 118.80135742 18.11132812 118.62255859 C15.38343936 117.81819731 12.69421638 116.91004004 10 116 C9.56964359 111.67697834 9.14249555 107.35365506 8.71826172 103.0300293 C8.57362652 101.56054211 8.42812924 100.09113949 8.28173828 98.62182617 C8.07094908 96.50461355 7.86330608 94.38711182 7.65625 92.26953125 C7.53056641 90.99698486 7.40488281 89.72443848 7.27539062 88.41333008 C7 85 7 85 7 80 C14.59 80 22.18 80 30 80 C31.18695553 83.56086658 31.35095418 86.97331024 31.5625 90.6875 C31.60568359 91.38939453 31.64886719 92.09128906 31.69335938 92.81445312 C31.7991736 94.54275206 31.90006581 96.2713511 32 98 C35.18599396 98.81848252 38.3740388 99.62868699 41.5625 100.4375 C42.45775391 100.66759766 43.35300781 100.89769531 44.27539062 101.13476562 C46.84447292 101.78409412 49.41952157 102.39778372 52 103 C53.70349609 103.41185547 53.70349609 103.41185547 55.44140625 103.83203125 C60.71662548 104.08102623 65.32984858 102.68770328 70.375 101.25 C71.88900391 100.85167969 71.88900391 100.85167969 73.43359375 100.4453125 C77.28565699 99.4146331 77.28565699 99.4146331 81 98 C81.93786696 95.18639911 82.2593562 92.97041979 82.5 90.03515625 C82.5825 89.07029297 82.665 88.10542969 82.75 87.11132812 C82.8325 86.10521484 82.915 85.09910156 83 84.0625 C83.16368598 82.07397114 83.33024248 80.08567599 83.5 78.09765625 C83.5721875 77.21601807 83.644375 76.33437988 83.71875 75.42602539 C84 73 84 73 85 69 C58.93 69 32.86 69 6 69 C4.125 48.125 4.125 48.125 3.54736328 41.66064453 C3.38886328 39.90132054 3.22986284 38.14204155 3.0703125 36.3828125 C2.98411652 35.43213898 2.89792053 34.48146545 2.80911255 33.50198364 C2.17308677 26.60221847 1.44659307 19.71626759 0.60305786 12.83865356 C0.08624053 8.47088081 0 4.45057587 0 0 Z " fill="#ECE8E7" transform="translate(71,88)"/>
<path d="M0 0 C24.42 0 48.84 0 74 0 C71.73584932 35.09433562 71.73584932 35.09433562 70.31124878 48.20373535 C68.75875232 62.53523374 67.48823351 76.87356417 66.4375 91.25 C65.5188927 103.8179134 64.40579424 116.32900357 62.98852539 128.85253906 C62.15628722 136.26387429 61.55103125 143.64407737 61.2109375 151.09375 C61.03207861 153.55802804 60.63438534 155.63044031 60 158 C59.31711914 158.18062988 58.63423828 158.36125977 57.93066406 158.54736328 C44.64207268 162.0709546 31.41071291 165.71020091 18.2578125 169.7109375 C4.15447598 174 4.15447598 174 0 174 C0 166.41 0 158.82 0 151 C4.79387744 148.9454811 8.69035288 147.42966979 13.625 146.1875 C18.27366174 144.99958229 22.89745507 143.75367137 27.50390625 142.41015625 C28.91518799 141.99890503 28.91518799 141.99890503 30.35498047 141.5793457 C32.21846789 141.03372712 34.08081359 140.4841913 35.94189453 139.93041992 C36.80024902 139.6801001 37.65860352 139.42978027 38.54296875 139.171875 C39.30633545 138.9459668 40.06970215 138.72005859 40.85620117 138.48730469 C43 138 43 138 47 138 C46.97824707 137.18184814 46.95649414 136.36369629 46.93408203 135.52075195 C46.77938104 124.67326583 47.60384097 113.98858352 48.59912109 103.19165039 C48.87605239 100.1760401 49.13987711 97.15947816 49.40234375 94.14257812 C49.5773505 92.19263867 49.75310558 90.2427662 49.9296875 88.29296875 C50.04544632 86.96449165 50.04544632 86.96449165 50.1635437 85.60917664 C50.73069088 79.56559712 51.79585238 74.02073812 53 68 C25.61 68 -1.78 68 -30 68 C-30.66 60.41 -31.32 52.82 -32 45 C-3.29 45 25.42 45 55 45 C55 42.03 55 39.06 55 36 C55.11319786 34.03950949 55.25332391 32.08009999 55.4375 30.125 C55.55931641 28.76761719 55.55931641 28.76761719 55.68359375 27.3828125 C56 25 56 25 57 22 C38.19 22 19.38 22 0 22 C0 14.74 0 7.48 0 0 Z " fill="#FF651E" transform="translate(128,66)"/>
<path d="M0 0 C17.16 0 34.32 0 52 0 C50.85595065 26.31313498 50.85595065 26.31313498 49.5 39 C48.45811408 48.9959154 47.60468708 58.9693084 47 69 C45.17122862 69.50799205 43.34245498 70.01597595 41.51367188 70.52392578 C39.90295758 70.971383 38.29228132 71.41897715 36.68164062 71.86669922 C32.50477198 73.02757059 28.3273688 74.18641779 24.1484375 75.33984375 C22.98707275 75.66130371 22.98707275 75.66130371 21.80224609 75.98925781 C20.27204485 76.41180755 18.7411202 76.83174662 17.20947266 77.24902344 C13.24212098 78.33796284 9.37918753 79.56160067 5.5 80.9375 C0.25307103 82.50800935 -3.83532111 81.50513499 -9 80 C-10.02609375 79.71640625 -11.0521875 79.4328125 -12.109375 79.140625 C-15.06598498 78.30950422 -18.01365014 77.45179462 -20.9609375 76.58837891 C-25.55515495 75.26270074 -30.17090635 74.01181485 -34.78320312 72.75073242 C-35.50443359 72.5519751 -36.22566406 72.35321777 -36.96875 72.1484375 C-37.91911133 71.88812744 -37.91911133 71.88812744 -38.88867188 71.62255859 C-41.61656064 70.81819731 -44.30578362 69.91004004 -47 69 C-47.43035641 64.67697834 -47.85750445 60.35365506 -48.28173828 56.0300293 C-48.42637348 54.56054211 -48.57187076 53.09113949 -48.71826172 51.62182617 C-48.92905092 49.50461355 -49.13669392 47.38711182 -49.34375 45.26953125 C-49.46943359 43.99698486 -49.59511719 42.72443848 -49.72460938 41.41333008 C-50 38 -50 38 -50 33 C-42.41 33 -34.82 33 -27 33 C-25.81304447 36.56086658 -25.64904582 39.97331024 -25.4375 43.6875 C-25.39431641 44.38939453 -25.35113281 45.09128906 -25.30664062 45.81445312 C-25.2008264 47.54275206 -25.09993419 49.2713511 -25 51 C-21.81400604 51.81848252 -18.6259612 52.62868699 -15.4375 53.4375 C-14.54224609 53.66759766 -13.64699219 53.89769531 -12.72460938 54.13476562 C-10.15552708 54.78409412 -7.58047843 55.39778372 -5 56 C-3.86433594 56.27457031 -2.72867188 56.54914063 -1.55859375 56.83203125 C3.71662548 57.08102623 8.32984858 55.68770328 13.375 54.25 C14.88900391 53.85167969 14.88900391 53.85167969 16.43359375 53.4453125 C20.28565699 52.4146331 20.28565699 52.4146331 24 51 C24.93786696 48.18639911 25.2593562 45.97041979 25.5 43.03515625 C25.5825 42.07029297 25.665 41.10542969 25.75 40.11132812 C25.8325 39.10521484 25.915 38.09910156 26 37.0625 C26.16368598 35.07397114 26.33024248 33.08567599 26.5 31.09765625 C26.5721875 30.21601807 26.644375 29.33437988 26.71875 28.42602539 C27 26 27 26 28 22 C18.76 22 9.52 22 0 22 C0 14.74 0 7.48 0 0 Z " fill="#FEFDFC" transform="translate(128,135)"/>
<path d="M0 0 C7.59 0 15.18 0 23 0 C24.18695553 3.56086658 24.35095418 6.97331024 24.5625 10.6875 C24.60568359 11.38939453 24.64886719 12.09128906 24.69335938 12.81445312 C24.7991736 14.54275206 24.90006581 16.2713511 25 18 C25.57967529 18.14099121 26.15935059 18.28198242 26.7565918 18.42724609 C29.4011643 19.07272796 32.0443275 19.7238101 34.6875 20.375 C36.05551758 20.70757812 36.05551758 20.70757812 37.45117188 21.046875 C38.33740234 21.26601562 39.22363281 21.48515625 40.13671875 21.7109375 C40.94842529 21.90993652 41.76013184 22.10893555 42.59643555 22.31396484 C45.12087203 23.03449979 47.56251434 24.02500574 50 25 C50.495 36.88 50.495 36.88 51 49 C39.79895561 46.75979112 39.79895561 46.75979112 34.5 45.1875 C33.324375 44.84332031 32.14875 44.49914062 30.9375 44.14453125 C30.31101562 43.96100098 29.68453125 43.7774707 29.0390625 43.58837891 C24.44484505 42.26270074 19.82909365 41.01181485 15.21679688 39.75073242 C14.49556641 39.5519751 13.77433594 39.35321777 13.03125 39.1484375 C12.08088867 38.88812744 12.08088867 38.88812744 11.11132812 38.62255859 C8.38343936 37.81819731 5.69421638 36.91004004 3 36 C2.56964359 31.67697834 2.14249555 27.35365506 1.71826172 23.0300293 C1.57362652 21.56054211 1.42812924 20.09113949 1.28173828 18.62182617 C1.07094908 16.50461355 0.86330608 14.38711182 0.65625 12.26953125 C0.53056641 10.99698486 0.40488281 9.72443848 0.27539062 8.41333008 C0 5 0 5 0 0 Z " fill="#EBE8E7" transform="translate(78,168)"/>
<path d="M0 0 C18.81 0 37.62 0 57 0 C56.34 7.26 55.68 14.52 55 22 C36.85 22 18.7 22 0 22 C0 14.74 0 7.48 0 0 Z " fill="#FEFDFD" transform="translate(128,88)"/>
<path d="M0 0 C4.62 0 9.24 0 14 0 C19 5.74074074 19 5.74074074 19 10 C21.5500417 7.63210414 23.00895617 5.97975126 24.4375 2.75 C25.283125 1.8425 26.12875 0.935 27 0 C31.29 0 35.58 0 40 0 C40 11.55 40 23.1 40 35 C36.04 35 32.08 35 28 35 C27.67 30.38 27.34 25.76 27 21 C25.02 23.97 23.04 26.94 21 30 C16.60841671 28.5361389 16.12052567 26.02168662 14 22 C13.67 26.29 13.34 30.58 13 35 C8.71 35 4.42 35 0 35 C0 23.45 0 11.9 0 0 Z " fill="#000000" transform="translate(129,0)"/>
<path d="M0 0 C3.96 0 7.92 0 12 0 C12 3.63 12 7.26 12 11 C15.3 11 18.6 11 22 11 C22 7.37 22 3.74 22 0 C25.96 0 29.92 0 34 0 C34 11.55 34 23.1 34 35 C30.04 35 26.08 35 22 35 C22 31.04 22 27.08 22 23 C18.7 23 15.4 23 12 23 C12 26.96 12 30.92 12 35 C8.04 35 4.08 35 0 35 C0 23.45 0 11.9 0 0 Z " fill="#000000" transform="translate(54,0)"/>
<path d="M0 0 C9.24 0 18.48 0 28 0 C27.71125 4.2075 27.4225 8.415 27.125 12.75 C27.03879395 14.0709668 26.95258789 15.39193359 26.86376953 16.75292969 C26.78755371 17.79868164 26.71133789 18.84443359 26.6328125 19.921875 C26.52283936 21.52434082 26.52283936 21.52434082 26.41064453 23.15917969 C26.00327992 25.97730967 25.68328906 27.70984605 24 30 C21.78515625 31.00488281 21.78515625 31.00488281 19.0625 31.703125 C18.08539063 31.9609375 17.10828125 32.21875 16.1015625 32.484375 C15.07804688 32.73703125 14.05453125 32.9896875 13 33.25 C11.97648438 33.518125 10.95296875 33.78625 9.8984375 34.0625 C2.40545281 36 2.40545281 36 0 36 C0 24.12 0 12.24 0 0 Z " fill="#FF661F" transform="translate(128,157)"/>
<path d="M0 0 C10.56 0 21.12 0 32 0 C32 7.59 32 15.18 32 23 C22.1 23 12.2 23 2 23 C1.34 15.41 0.68 7.82 0 0 Z " fill="#FE4C1E" transform="translate(96,111)"/>
<path d="M0 0 C10.89 0 21.78 0 33 0 C33 3.96 33 7.92 33 12 C29.7 12 26.4 12 23 12 C23 19.59 23 27.18 23 35 C19.04 35 15.08 35 11 35 C11 27.41 11 19.82 11 12 C7.37 12 3.74 12 0 12 C0 8.04 0 4.08 0 0 Z " fill="#000000" transform="translate(92,0)"/>
<path d="M0 0 C3.96 0 7.92 0 12 0 C12 7.59 12 15.18 12 23 C17.61 23 23.22 23 29 23 C29 26.96 29 30.92 29 35 C19.43 35 9.86 35 0 35 C0 23.45 0 11.9 0 0 Z " fill="#000000" transform="translate(174,0)"/>
</svg>
