<svg width="324.2px" height="120.8px" xmlns="http://www.w3.org/2000/svg" viewBox="87.9 14.600000000000001 324.2 120.8" style="background: rgba(0, 0, 0, 0);" preserveAspectRatio="xMidYMid"><defs><filter id="editing-hole" x="-100%" y="-100%" width="300%" height="300%"><feFlood flood-color="#000" result="black"></feFlood><feMorphology operator="dilate" radius="2" in="SourceGraphic" result="erode"></feMorphology><feGaussianBlur in="erode" stdDeviation="4" result="blur"></feGaussianBlur><feOffset in="blur" dx="2" dy="2" result="offset"></feOffset><feComposite operator="atop" in="offset" in2="black" result="merge"></feComposite><feComposite operator="in" in="merge" in2="SourceGraphic" result="inner-shadow"></feComposite></filter></defs><g filter="url(#editing-hole)"><g transform="translate(141.51531744003296, 104.47000312805176)"><path d="M30.91-4.38L30.91-4.38L30.91-4.38Q28.22-1.66 24.54-0.19L24.54-0.19L24.54-0.19Q20.86 1.28 17.22 1.28L17.22 1.28L17.22 1.28Q13.57 1.28 12.29 0.64L12.29 0.64L10.30 11.52L-2.69 12.80L6.14-32.64L16.58-33.73L15.74-29.31L15.74-29.31Q18.43-33.86 24-33.86L24-33.86L24-33.86Q30.27-33.86 33.60-29.82L33.60-29.82L33.60-29.82Q36.54-26.18 36.54-20.61L36.54-20.61L36.54-20.61Q36.54-15.04 35.07-11.07L35.07-11.07L35.07-11.07Q33.60-7.10 30.91-4.38ZM16.45-22.34L13.06-3.58L13.06-3.58Q14.40-2.43 16.06-2.43L16.06-2.43L16.06-2.43Q17.73-2.43 18.69-3.07L18.69-3.07L18.69-3.07Q19.65-3.71 20.35-4.99L20.35-4.99L20.35-4.99Q22.27-8.45 23.81-18.94L23.81-18.94L23.81-18.94Q24.26-22.02 24.26-25.02L24.26-25.02L24.26-25.02Q24.26-28.03 23.58-28.99L23.58-28.99L23.58-28.99Q22.91-29.95 21.63-29.95L21.63-29.95L21.63-29.95Q17.73-29.95 16.45-22.34L16.45-22.34ZM60.74-7.23L60.74-7.23L60.74-7.23Q57.41-3.78 51.33-3.78L51.33-3.78L51.33-3.78Q43.71-3.78 42.11-9.34L42.11-9.34L42.11-9.34Q41.60-11.01 41.60-12.86L41.60-12.86L41.60-12.86Q41.60-14.72 41.98-16.64L41.98-16.64L44.99-32.64L57.98-33.92L54.46-15.30L54.46-15.30Q54.34-14.46 54.14-13.57L54.14-13.57L54.14-13.57Q53.95-12.67 53.95-11.74L53.95-11.74L53.95-11.74Q53.95-10.82 54.27-10.21L54.27-10.21L54.27-10.21Q54.59-9.60 55.04-9.22L55.04-9.22L55.04-9.22Q55.81-8.70 57.18-8.70L57.18-8.70L57.18-8.70Q58.56-8.70 59.74-10.37L59.74-10.37L59.74-10.37Q60.93-12.03 61.50-14.91L61.50-14.91L65.02-32.64L77.63-33.92L72.83-8.77L72.83-8.77Q70.46 3.52 65.60 8.38L65.60 8.38L65.60 8.38Q63.10 10.88 59.87 11.87L59.87 11.87L59.87 11.87Q56.64 12.86 52.48 12.86L52.48 12.86L52.48 12.86Q45.76 12.86 41.92 10.75L41.92 10.75L41.92 10.75Q38.08 8.64 38.08 5.12L38.08 5.12L38.08 5.12Q38.08 2.50 40.06 0.99L40.06 0.99L40.06 0.99Q42.05-0.51 45.12-0.51L45.12-0.51L45.12-0.51Q47.81-0.51 49.86 0.64L49.86 0.64L49.86 0.64Q51.07 1.34 51.65 2.24L51.65 2.24L51.65 2.24Q50.18 3.52 50.18 5.63L50.18 5.63L50.18 5.63Q50.18 8.45 52.74 8.45L52.74 8.45L52.74 8.45Q56.96 8.45 59.39-1.28L59.39-1.28L59.39-1.28Q60.10-4.16 60.74-7.23ZM80.96-6.40L80.96-6.40L80.96-6.40Q80.96-8.13 81.86-12.48L81.86-12.48L85.25-29.76L81.47-29.76L81.73-31.68L81.73-31.68Q89.41-33.98 96.83-39.62L96.83-39.62L99.90-39.62L98.37-32.64L103.36-32.64L102.78-29.76L97.86-29.76L94.59-12.48L94.59-12.48Q93.76-8.51 93.76-7.17L93.76-7.17L93.76-7.17Q93.76-4.10 96.45-3.46L96.45-3.46L96.45-3.46Q95.81-1.28 93.50 0L93.50 0L93.50 0Q91.20 1.28 87.94 1.28L87.94 1.28L87.94 1.28Q84.67 1.28 82.82-0.77L82.82-0.77L82.82-0.77Q80.96-2.82 80.96-6.40ZM135.23-7.10L135.23-7.10L135.23-7.10Q135.23-4.29 138.11-3.46L138.11-3.46L138.11-3.46Q137.41-1.09 134.66 0.19L134.66 0.19L134.66 0.19Q132.35 1.28 129.82 1.28L129.82 1.28L129.82 1.28Q127.30 1.28 125.98 0.61L125.98 0.61L125.98 0.61Q124.67-0.06 123.97-1.15L123.97-1.15L123.97-1.15Q122.82-2.82 122.82-5.95L122.82-5.95L122.82-5.95Q122.82-7.81 123.84-12.93L123.84-12.93L124.74-17.79L124.74-17.79Q125.82-23.36 125.82-25.41L125.82-25.41L125.82-25.41Q125.82-28.99 123.84-28.99L123.84-28.99L123.84-28.99Q121.34-28.99 119.74-25.34L119.74-25.34L119.74-25.34Q119.10-23.94 118.66-21.82L118.66-21.82L114.30 0L101.44 1.28L110.46-44.80L123.33-46.08L122.82-43.52L122.82-43.52Q121.02-33.66 119.49-30.34L119.49-30.34L119.49-30.34Q123.07-33.92 129.66-33.92L129.66-33.92L129.66-33.92Q136.64-33.92 137.92-29.31L137.92-29.31L137.92-29.31Q138.37-27.84 138.37-26.56L138.37-26.56L138.37-26.56Q138.37-25.28 138.27-24.29L138.27-24.29L138.27-24.29Q138.18-23.30 137.86-21.50L137.86-21.50L137.02-16.90L135.55-9.66L135.55-9.66Q135.23-8.19 135.23-7.10ZM157.25 1.28L157.25 1.28L157.25 1.28Q143.17 1.28 143.17-11.97L143.17-11.97L143.17-11.97Q143.17-21.38 148.35-27.46L148.35-27.46L148.35-27.46Q153.86-33.92 163.39-33.92L163.39-33.92L163.39-33.92Q170.30-33.92 173.82-30.72L173.82-30.72L173.82-30.72Q177.34-27.52 177.34-20.80L177.34-20.80L177.34-20.80Q177.34-10.56 171.84-4.61L171.84-4.61L171.84-4.61Q166.46 1.28 157.25 1.28ZM158.91-26.56L158.91-26.56L158.91-26.56Q158.14-24.83 157.54-22.24L157.54-22.24L157.54-22.24Q156.93-19.65 156.16-15.55L156.16-15.55L156.16-15.55Q155.39-11.46 155.39-6.40L155.39-6.40L155.39-6.40Q155.39-4.74 155.94-3.65L155.94-3.65L155.94-3.65Q156.48-2.56 157.95-2.56L157.95-2.56L157.95-2.56Q159.42-2.56 160.35-3.26L160.35-3.26L160.35-3.26Q161.28-3.97 161.98-5.63L161.98-5.63L161.98-5.63Q163.26-8.58 164.29-14.05L164.29-14.05L164.29-14.05Q165.31-19.52 165.41-21.89L165.41-21.89L165.41-21.89Q165.50-24.26 165.50-26.02L165.50-26.02L165.50-26.02Q165.50-27.78 164.99-28.93L164.99-28.93L164.99-28.93Q164.48-30.08 163.04-30.08L163.04-30.08L163.04-30.08Q161.60-30.08 160.64-29.18L160.64-29.18L160.64-29.18Q159.68-28.29 158.91-26.56ZM208.19 1.28L208.19 1.28L208.19 1.28Q200.45 1.28 200.45-4.74L200.45-4.74L200.45-4.74Q200.51-6.40 201.02-9.22L201.02-9.22L202.18-15.10L202.18-15.10Q203.90-23.42 203.90-25.28L203.90-25.28L203.90-25.28Q203.90-28.99 201.73-28.99L201.73-28.99L201.73-28.99Q198.08-28.99 196.16-19.46L196.16-19.46L192.38 0L179.52 1.28L186.18-32.70L196.67-33.92L195.65-27.65L195.65-27.65Q198.66-33.92 207.87-33.92L207.87-33.92L207.87-33.92Q212.35-33.92 214.24-32.03L214.24-32.03L214.24-32.03Q216.13-30.14 216.13-25.92L216.13-25.92L216.13-25.92Q216.13-21.95 214.08-12.67L214.08-12.67L214.08-12.67Q213.12-8.51 213.12-6.94L213.12-6.94L213.12-6.94Q213.12-5.38 213.98-4.48L213.98-4.48L213.98-4.48Q214.85-3.58 216.13-3.46L216.13-3.46L216.13-3.46Q215.49-1.28 213.28 0L213.28 0L213.28 0Q211.07 1.28 208.19 1.28Z" fill="#ccc"></path></g></g><style>text {
  font-size: 64px;
  font-family: Arial Black;
  dominant-baseline: central;
  text-anchor: middle;
}</style></svg>