<?xml version="1.0" encoding="UTF-8"?>
<svg version="1.1" xmlns="http://www.w3.org/2000/svg" width="370" height="442">
<path d="M0 0 C122.1 0 244.2 0 370 0 C370 145.86 370 291.72 370 442 C247.9 442 125.8 442 0 442 C0 296.14 0 150.28 0 0 Z " fill="#7FC240" transform="translate(0,0)"/>
<path d="M0 0 C122.1 0 244.2 0 370 0 C370 145.86 370 291.72 370 442 C247.9 442 125.8 442 0 442 C0 296.14 0 150.28 0 0 Z M25 27 C16.5016001 36.74544772 10.87229505 48.04303008 10.87695217 61.09693623 C10.87496112 62.32956332 10.87297007 63.56219041 10.87091869 64.83216983 C10.87377154 66.19697673 10.87671713 67.56178344 10.87974548 68.92658997 C10.8793094 70.37871036 10.87843379 71.83083068 10.87715632 73.28295058 C10.87491875 77.27361629 10.87892258 81.2642552 10.88393438 85.2549175 C10.88824925 89.55820997 10.88679172 93.8615009 10.8860321 98.16479492 C10.88550753 105.62067333 10.88864741 113.076543 10.89426994 120.5324192 C10.90239391 131.31239026 10.90500109 142.09235708 10.90625793 152.87233087 C10.90844704 170.36174837 10.91510331 187.8511612 10.92456055 205.34057617 C10.93373831 222.33081031 10.94081737 239.32104318 10.94506836 256.3112793 C10.94533108 257.35840113 10.94559381 258.40552296 10.94586449 259.48437575 C10.94716952 264.73743158 10.94843323 269.99048742 10.94967639 275.24354327 C10.96004461 318.82903207 10.97765909 362.4145158 11 406 C11.99 406.33 12.98 406.66 14 407 C14 407.66 14 408.32 14 409 C14.66 409 15.32 409 16 409 C16 409.66 16 410.32 16 411 C17.58141421 412.63881452 17.58141421 412.63881452 19.625 414.3125 C20.35589844 414.93511719 21.08679688 415.55773437 21.83984375 416.19921875 C23.61725609 417.68093139 25.40031449 419.15512158 27.1875 420.625 C30.48228043 423.40725903 33.62245206 426.30863712 36.3503418 429.65795898 C37.92508108 431.19951654 37.92508108 431.19951654 40.14770508 431.16430664 C40.99228271 431.05981201 41.83686035 430.95531738 42.70703125 430.84765625 C43.69268066 430.72793457 44.67833008 430.60821289 45.69384766 430.48486328 C51.29683593 429.66315787 56.8853747 428.77563876 62.46658325 427.81838989 C64.77063429 427.42324237 67.07550358 427.03319745 69.38061523 426.64428711 C72.77388172 426.07147197 76.16682168 425.49677259 79.55957031 424.92089844 C88.20973946 423.4545486 96.86398904 422.01255948 105.51815796 420.57003784 C107.55451564 420.23054623 109.59083131 419.89080254 111.62710571 419.55081177 C125.30242245 417.26754372 138.98351192 415.02336224 152.67062378 412.8119812 C166.81316337 410.52678734 180.93560347 408.16397678 195.03656006 405.63470459 C207.17081662 403.46083625 219.32957575 401.46042394 231.5 399.5 C244.74698714 397.36594949 257.97806634 395.1684335 271.1875 392.8125 C271.8822644 392.68862915 272.57702881 392.5647583 273.29284668 392.43713379 C274.66291382 392.19280448 276.03298016 391.94847066 277.40304565 391.70413208 C285.01241776 390.3473773 292.62638129 389.02433277 300.25 387.75 C301.21848877 387.58733643 302.18697754 387.42467285 303.18481445 387.25708008 C308.40622384 386.39151358 313.6230734 385.65227354 318.875 385 C331.19453375 383.22729805 340.17636239 377.82395631 348.296875 368.30859375 C359.83310884 352.37037594 359.72764755 335.69385858 359.58032811 316.79456902 C359.55848704 313.27198522 359.56606 309.74943921 359.56983948 306.22680664 C359.57244573 300.14172265 359.55692214 294.05690925 359.52865028 287.97189331 C359.48780236 279.1743165 359.47497145 270.37686889 359.46871033 261.57920754 C359.45780031 247.30142901 359.42461608 233.02379431 359.37719727 218.74609375 C359.33121602 204.88672601 359.29586619 191.0273975 359.2746582 177.16796875 C359.27334459 176.3119176 359.27203097 175.45586645 359.27067754 174.57387435 C359.26415178 170.27879223 359.25783338 165.98370983 359.25161803 161.68862724 C359.19988769 126.12564903 359.11191282 90.56283785 359 55 C354.07988577 54.17863107 349.15971056 53.35762866 344.23948193 52.53694534 C342.57056997 52.25852397 340.90167384 51.98000767 339.23279476 51.70138931 C330.06094157 50.17022152 320.88877185 48.64288114 311.70703125 47.171875 C310.89681613 47.04200825 310.08660101 46.91214149 309.25183392 46.77833939 C306.33804573 46.31181373 303.42399702 45.84697864 300.50952148 45.38476562 C286.29805036 43.12741251 286.29805036 43.12741251 281.4609375 41.9765625 C275.3991651 40.55077451 269.20556758 39.80899352 263.04464722 38.94030762 C251.27990479 37.27844908 239.55577309 35.51550304 227.88793945 33.25634766 C223.20838447 32.35740691 218.57993609 31.68213544 213.83227539 31.25488281 C212 31 212 31 210 30 C208.36784055 29.72103303 206.72800652 29.48645479 205.0859375 29.2734375 C204.03623779 29.13244629 202.98653809 28.99145508 201.9050293 28.84619141 C200.74011963 28.69069824 199.57520996 28.53520508 198.375 28.375 C186.42701016 26.72856497 174.5594863 24.74772348 162.6875 22.625 C146.88698664 19.8013908 131.05995113 17.24327019 115.1862793 14.86572266 C114.39607895 14.74688721 113.6058786 14.62805176 112.79173279 14.50561523 C111.32080621 14.28488799 109.84960064 14.06600853 108.37806702 13.84936523 C105.853087 13.47145455 103.3675409 13.09794828 100.8984375 12.43994141 C78.72943363 7.30252564 41.86937877 10.35093028 25 27 Z " fill="#E8E8E8" transform="translate(0,0)"/>
<path d="M0 0 C20.25837327 -0.36982832 38.99705674 5.0670975 54.1015625 19.1171875 C78.73312754 45.07540774 82.37405879 83.26781892 82.0390625 117.4296875 C82.0338559 118.53528015 82.02864929 119.6408728 82.02328491 120.77996826 C81.83535374 154.90224108 78.63595226 193.72671667 53.92578125 219.86328125 C47.60204164 225.835127 40.61865778 229.97512267 32.5390625 233.1171875 C33.17154902 239.12580946 34.819554 246.72682586 39.5078125 250.84765625 C44.97639317 254.26551917 50.02944528 254.3938967 56.5390625 255.1171875 C56.5390625 263.6971875 56.5390625 272.2771875 56.5390625 281.1171875 C49.46415144 282.40353497 43.43764735 283.45854365 36.4140625 283.3671875 C35.63417969 283.35896973 34.85429687 283.35075195 34.05078125 283.34228516 C23.27167283 283.13239046 15.23104107 280.79016024 6.8203125 273.66015625 C-1.12595246 265.3123513 -8.16680595 249.76465511 -8.55859375 238.24609375 C-8.52636719 237.54355469 -8.49414062 236.84101563 -8.4609375 236.1171875 C-9.47542969 236.0140625 -10.48992187 235.9109375 -11.53515625 235.8046875 C-25.68525426 233.32666039 -37.06654589 223.09824505 -45.5234375 212.015625 C-56.21103545 196.02732322 -61.8579017 177.03808546 -64.4609375 158.1171875 C-64.56390137 157.40014648 -64.66686523 156.68310547 -64.77294922 155.94433594 C-66.59976361 142.51306549 -66.66886667 129.02201503 -66.7109375 115.4921875 C-66.71620453 114.63448761 -66.72147156 113.77678772 -66.72689819 112.89309692 C-66.8057599 96.26241344 -65.9407085 79.62675242 -62.2109375 63.3671875 C-61.99405273 62.40820557 -61.77716797 61.44922363 -61.55371094 60.46118164 C-57.59372258 43.62841463 -51.18091051 29.10471167 -39.4609375 16.1171875 C-38.8009375 16.1171875 -38.1409375 16.1171875 -37.4609375 16.1171875 C-37.4609375 15.4571875 -37.4609375 14.7971875 -37.4609375 14.1171875 C-26.87414035 4.32980157 -14.06905985 0.476379 0 0 Z " fill="#FDFEFD" transform="translate(159.4609375,88.8828125)"/>
<path d="M0 0 C4.95 0 9.9 0 15 0 C15 4.95 15 9.9 15 15 C19.95 15 24.9 15 30 15 C30 10.05 30 5.1 30 0 C34.95 0 39.9 0 45 0 C45 4.95 45 9.9 45 15 C49.95 15 54.9 15 60 15 C60 10.05 60 5.1 60 0 C64.95 0 69.9 0 75 0 C75 4.95 75 9.9 75 15 C79.95 15 84.9 15 90 15 C90 19.95 90 24.9 90 30 C94.95 30 99.9 30 105 30 C105 25.05 105 20.1 105 15 C109.95 15 114.9 15 120 15 C120 19.95 120 24.9 120 30 C124.95 30 129.9 30 135 30 C135 25.05 135 20.1 135 15 C139.95 15 144.9 15 150 15 C150 19.95 150 24.9 150 30 C153.3 30 156.6 30 160 30 C160 153.75 160 277.5 160 405 C156.7 405 153.4 405 150 405 C150 409.95 150 414.9 150 420 C145.05 420 140.1 420 135 420 C135 415.05 135 410.1 135 405 C130.05 405 125.1 405 120 405 C120 409.95 120 414.9 120 420 C115.05 420 110.1 420 105 420 C105 415.05 105 410.1 105 405 C100.05 405 95.1 405 90 405 C90 409.95 90 414.9 90 420 C85.05 420 80.1 420 75 420 C75 415.05 75 410.1 75 405 C70.05 405 65.1 405 60 405 C60 409.95 60 414.9 60 420 C55.05 420 50.1 420 45 420 C45 415.05 45 410.1 45 405 C40.05 405 35.1 405 30 405 C30 409.95 30 414.9 30 420 C25.05 420 20.1 420 15 420 C15 415.05 15 410.1 15 405 C10.05 405 5.1 405 0 405 C0 409.95 0 414.9 0 420 C-4.95 420 -9.9 420 -15 420 C-15 415.05 -15 410.1 -15 405 C-19.95 405 -24.9 405 -30 405 C-30 409.95 -30 414.9 -30 420 C-34.95 420 -39.9 420 -45 420 C-45 415.05 -45 410.1 -45 405 C-49.95 405 -54.9 405 -60 405 C-60 409.95 -60 414.9 -60 420 C-64.95 420 -69.9 420 -75 420 C-75 415.05 -75 410.1 -75 405 C-79.95 405 -84.9 405 -90 405 C-90 409.95 -90 414.9 -90 420 C-94.95 420 -99.9 420 -105 420 C-105 415.38 -105 410.76 -105 406 C-105.66 405.67 -106.32 405.34 -107 405 C-106.06808838 404.8455542 -105.13617676 404.6911084 -104.17602539 404.53198242 C-99.47129689 403.75181127 -94.76685437 402.96992371 -90.0625 402.1875 C-89.15853485 402.03716309 -88.2545697 401.88682617 -87.32321167 401.73193359 C-74.62863492 399.6192559 -61.93775749 397.48526665 -49.25 395.33203125 C-48.57250198 395.2170718 -47.89500397 395.10211235 -47.19697571 394.98366928 C-43.72513481 394.39454843 -40.25331208 393.80532059 -36.78149414 393.21606445 C-36.08641754 393.09809509 -35.39134094 392.98012573 -34.67520142 392.85858154 C-33.2639638 392.61905704 -31.85272927 392.37951432 -30.4414978 392.13995361 C-11.62827273 388.94668858 7.19187058 385.8046985 26.03137207 382.7696228 C39.84706147 380.54174953 53.63076051 378.16074749 67.40730286 375.70344543 C75.0152118 374.34667539 82.62780064 373.02409552 90.25 371.75 C91.70273315 371.50600464 91.70273315 371.50600464 93.18481445 371.25708008 C98.40622384 370.39151358 103.6230734 369.65227354 108.875 369 C120.60203066 367.32470991 129.50853581 362.46280899 137.23046875 353.375 C148.79189224 337.41025762 148.74512885 320.74053404 148.6648711 301.79456902 C148.65550374 298.27192216 148.6752239 294.74941323 148.69119263 291.22680664 C148.71489846 285.14178124 148.72067546 279.05695819 148.71384621 272.97189331 C148.70399921 264.17424518 148.72185777 255.37681959 148.74621352 246.57920754 C148.78500016 232.30149793 148.80175994 218.02385248 148.80444336 203.74609375 C148.80709583 189.88668532 148.82026152 176.02735177 148.84741211 162.16796875 C148.84908549 161.3119176 148.85075887 160.45586645 148.85248295 159.57387435 C148.86094317 155.27879163 148.86960846 150.98370935 148.87837565 146.68862724 C148.95070243 111.12576166 148.98718724 75.56293497 149 40 C147.78124963 39.86747581 146.56249926 39.73495163 145.30681705 39.59841156 C143.68265119 39.4202887 142.05849306 39.24209536 140.43434143 39.06384277 C139.6340547 38.97701107 138.83376798 38.89017937 138.00923014 38.8007164 C131.14504272 38.04501274 124.33913073 37.04121495 117.52734375 35.90625 C115.76639122 35.61796326 115.76639122 35.61796326 113.96986389 35.32385254 C111.5255263 34.9226958 109.08155016 34.51933053 106.63793945 34.11376953 C102.9138154 33.49607158 99.18847108 32.88618967 95.46289062 32.27734375 C93.06763353 31.8832669 90.67244855 31.4887514 88.27734375 31.09375 C87.17720444 30.91348267 86.07706512 30.73321533 84.94358826 30.54748535 C79.59994479 29.65763101 74.31840945 28.65701231 69.03941345 27.44317627 C65.86669784 26.75372692 62.67124357 26.30239361 59.45703125 25.8515625 C58.04938466 25.65080819 56.6417517 25.44995825 55.23413086 25.24902344 C54.51160126 25.14714722 53.78907166 25.045271 53.04464722 24.94030762 C41.27990479 23.27844908 29.55577309 21.51550304 17.88793945 19.25634766 C13.20838447 18.35740691 8.57993609 17.68213544 3.83227539 17.25488281 C2 17 2 17 0 16 C0 10.72 0 5.44 0 0 Z " fill="#DCDDDC" transform="translate(210,15)"/>
<path d="M0 0 C-0.55300781 0.27585937 -1.10601562 0.55171875 -1.67578125 0.8359375 C-2.82626953 1.41214844 -2.82626953 1.41214844 -4 2 C-4.81855469 2.40476562 -5.63710937 2.80953125 -6.48046875 3.2265625 C-19.17377881 9.78385687 -28.25861207 18.65607672 -32.81084186 32.45848012 C-35.13486153 40.90475978 -35.42978427 49.02821954 -35.39872742 57.71746826 C-35.40417648 59.27875479 -35.41093201 60.8400372 -35.41886932 62.40131307 C-35.43679401 66.6612414 -35.43635 70.9209945 -35.43273985 75.1809516 C-35.43211352 79.78612898 -35.44875924 84.39124882 -35.46325684 88.99639893 C-35.48600288 96.96507957 -35.49792105 104.93371662 -35.50238609 112.90242767 C-35.50885752 124.42369031 -35.53181237 135.94487427 -35.55872939 147.46610513 C-35.60196053 166.16066057 -35.63194825 184.85521268 -35.65356445 203.54980469 C-35.67458515 221.7047692 -35.70186979 239.85970656 -35.73754883 258.01464844 C-35.73974765 259.13460609 -35.74194648 260.25456375 -35.74421193 261.40845951 C-35.75528186 267.0272229 -35.76647462 272.64598603 -35.77772844 278.26474905 C-35.87086152 324.84314208 -35.9424836 371.42155029 -36 418 C-37.2827496 417.05150389 -38.56364228 416.10049613 -39.84375 415.1484375 C-40.55724609 414.61911621 -41.27074219 414.08979492 -42.00585938 413.54443359 C-44.57192213 411.55705443 -46.76210279 409.34979207 -49 407 C-50.39135099 405.57893084 -51.78750908 404.16255816 -53.1875 402.75 C-53.86167969 402.06421875 -54.53585938 401.3784375 -55.23046875 400.671875 C-56.90798995 398.92550889 -56.90798995 398.92550889 -59 398 C-59 397.34 -59 396.68 -59 396 C-59.66 396 -60.32 396 -61 396 C-61 395.34 -61 394.68 -61 394 C-61.99 393.67 -62.98 393.34 -64 393 C-64.09160203 348.50597938 -64.16206235 304.01196877 -64.20426132 259.51787241 C-64.209264 254.26215893 -64.21444131 249.00644563 -64.21972656 243.75073242 C-64.2207758 242.70443667 -64.22182505 241.65814092 -64.22290608 240.58013924 C-64.24030025 223.64982663 -64.27183251 206.71956847 -64.30861118 189.78928814 C-64.34604809 172.41076806 -64.36824167 155.03227645 -64.37635398 137.6537177 C-64.38183604 126.93454946 -64.39913616 116.21553517 -64.43166587 105.49641433 C-64.45284769 98.1408996 -64.45919174 90.78546418 -64.45400551 83.42992119 C-64.45144944 79.18932218 -64.45530319 74.94899175 -64.4768219 70.70844078 C-64.49641559 66.8186465 -64.49718791 62.92929914 -64.48359558 59.03948345 C-64.48191791 57.63952153 -64.48688326 56.23953069 -64.49953273 54.83962492 C-64.61350715 41.43619346 -61.81186706 30.00849062 -54 19 C-53.49855469 18.29101562 -52.99710938 17.58203125 -52.48046875 16.8515625 C-44.78268284 7.07481251 -33.35720021 2.37967477 -21.32421875 0.60546875 C-14.23132765 -0.16438195 -7.12593555 -0.10196092 0 0 Z " fill="#016224" transform="translate(75,13)"/>
<path d="M0 0 C9.41709516 8.1076705 11.81835268 18.2087157 14 30 C14.1959375 30.92296875 14.391875 31.8459375 14.59375 32.796875 C17.99536546 50.10509485 17.09616315 68.25703848 17.125 85.8125 C17.12767883 86.7304837 17.13035767 87.64846741 17.13311768 88.5942688 C17.16838897 104.56521604 17.02045468 120.37856468 14.0625 136.125 C13.80823242 137.56746094 13.80823242 137.56746094 13.54882812 139.0390625 C11.52630465 150.23599856 8.47510593 161.72840707 -1 169 C-6.9699748 171.97914594 -12.5355065 172.75080032 -19 171 C-24.95755637 168.19644406 -27.74627691 163.49065771 -31 158 C-31.556875 157.071875 -32.11375 156.14375 -32.6875 155.1875 C-47.18170643 119.9872844 -43.79833616 69.08428378 -39 32 C-38.90879883 31.26313965 -38.81759766 30.5262793 -38.72363281 29.76708984 C-37.36382137 19.5112488 -34.13268402 7.15430186 -25.91796875 0.18359375 C-17.56516621 -6.06703091 -8.74878253 -5.08085902 0 0 Z " fill="#7FC241" transform="translate(183,124)"/>
<path d="M0 0 C2.12304688 -0.26464844 2.12304688 -0.26464844 4.71875 -0.109375 C5.65074219 -0.05910156 6.58273437 -0.00882812 7.54296875 0.04296875 C9.00669922 0.14544922 9.00669922 0.14544922 10.5 0.25 C11.47582031 0.30285156 12.45164062 0.35570313 13.45703125 0.41015625 C20.67940542 0.83970271 20.67940542 0.83970271 23 2 C23 15.53 23 29.06 23 43 C27.95 43 32.9 43 38 43 C41.3 43.33 44.6 43.66 48 44 C48 52.25 48 60.5 48 69 C44.803125 69.020625 41.60625 69.04125 38.3125 69.0625 C36.81456909 69.07615601 36.81456909 69.07615601 35.28637695 69.09008789 C34.48675537 69.09258545 33.68713379 69.09508301 32.86328125 69.09765625 C32.05157471 69.10289307 31.23986816 69.10812988 30.40356445 69.11352539 C27.85048394 68.99293804 25.49796709 68.52398994 23 68 C23.06121191 81.45642661 23.13831911 94.91265928 23.23571491 108.3688755 C23.28044049 114.61716039 23.31969202 120.86537975 23.34643555 127.11376953 C23.37244635 133.14391821 23.41283357 139.17381499 23.46318626 145.20380783 C23.47986991 147.50425457 23.49137484 149.8047449 23.49761391 152.10524368 C23.50723841 155.32775525 23.53527909 158.54962016 23.56762695 161.77197266 C23.56619186 162.72287781 23.56475677 163.67378296 23.5632782 164.65350342 C23.63675427 169.82993661 24.06006812 173.54174665 27 178 C33.89439372 181.44719686 43.14202253 177.89185585 50 176 C50 183.59 50 191.18 50 199 C35.5462448 205.0997499 18.60592675 211.40003166 3.0234375 205.0859375 C-4.50356757 201.0463479 -7.96834065 196.02211153 -11.08984375 188.16015625 C-13.19134983 180.86351069 -13.14060772 173.52553067 -13.11352539 165.99414062 C-13.11367142 164.92007965 -13.11381744 163.84601868 -13.1139679 162.7394104 C-13.11327475 159.21166927 -13.10551047 155.68398184 -13.09765625 152.15625 C-13.09578994 149.701457 -13.09436704 147.24666362 -13.09336853 144.79187012 C-13.0895601 138.34752362 -13.07974416 131.90319985 -13.06866455 125.4588623 C-13.05841438 118.87622383 -13.05386319 112.29358166 -13.04882812 105.7109375 C-13.03812035 92.80728171 -13.02106409 79.90364275 -13 67 C-16.96 66.67 -20.92 66.34 -25 66 C-25 57.09 -25 48.18 -25 39 C-20.05 39.33 -15.1 39.66 -10 40 C-9.75765625 38.75347656 -9.5153125 37.50695312 -9.265625 36.22265625 C-7.57574415 27.60392354 -5.84226703 18.99774465 -3.875 10.4375 C-3.71676758 9.73052979 -3.55853516 9.02355957 -3.39550781 8.29516602 C-2.62800388 5.02201115 -1.88937982 2.83406973 0 0 Z " fill="#FCFDFC" transform="translate(272,104)"/>
<path d="M0 0 C4.95 0 9.9 0 15 0 C15 4.95 15 9.9 15 15 C19.95 15 24.9 15 30 15 C30 11.37 30 7.74 30 4 C34.72940305 6.68425579 34.72940305 6.68425579 36.3828125 8.61352539 C37.90870117 10.19460527 37.90870117 10.19460527 40.06640625 10.17749023 C41.30197266 10.02582397 41.30197266 10.02582397 42.5625 9.87109375 C43.5421875 9.75233887 44.521875 9.63358398 45.53125 9.51123047 C52.70396057 8.45410378 59.85327762 7.28204983 67 6.0625 C68.59108498 5.79456025 70.18223054 5.52698001 71.7734375 5.25976562 C79.10330435 4.02452045 86.42501169 2.77246844 93.7199707 1.34204102 C97.50159884 0.77473606 101.18385283 0.87488042 105 1 C105 5.62 105 10.24 105 15 C109.95 15 114.9 15 120 15 C120 10.05 120 5.1 120 0 C124.95 0 129.9 0 135 0 C135 4.95 135 9.9 135 15 C139.95 15 144.9 15 150 15 C150 10.05 150 5.1 150 0 C154.95 0 159.9 0 165 0 C165 4.95 165 9.9 165 15 C169.95 15 174.9 15 180 15 C180 10.05 180 5.1 180 0 C184.95 0 189.9 0 195 0 C195 4.95 195 9.9 195 15 C199.95 15 204.9 15 210 15 C210 10.05 210 5.1 210 0 C214.95 0 219.9 0 225 0 C225 4.95 225 9.9 225 15 C229.95 15 234.9 15 240 15 C240 10.05 240 5.1 240 0 C244.95 0 249.9 0 255 0 C255 4.95 255 9.9 255 15 C259.95 15 264.9 15 270 15 C270 10.05 270 5.1 270 0 C274.95 0 279.9 0 285 0 C285 4.95 285 9.9 285 15 C289.95 15 294.9 15 300 15 C300 10.05 300 5.1 300 0 C304.95 0 309.9 0 315 0 C315 4.95 315 9.9 315 15 C319.95 15 324.9 15 330 15 C330 10.05 330 5.1 330 0 C334.95 0 339.9 0 345 0 C345 4.95 345 9.9 345 15 C349.95 15 354.9 15 360 15 C360 10.05 360 5.1 360 0 C363.3 0 366.6 0 370 0 C370 7.26 370 14.52 370 22 C247.9 22 125.8 22 0 22 C0 14.74 0 7.48 0 0 Z " fill="#FEFEFE" transform="translate(0,420)"/>
<path d="M0 0 C1.87237958 -0.01630993 3.74505787 0.00829968 5.6171875 0.04296875 C5.6171875 0.37296875 5.6171875 0.70296875 5.6171875 1.04296875 C4.85535156 1.213125 4.09351563 1.38328125 3.30859375 1.55859375 C-6.33935797 3.82303186 -14.03355013 6.57003542 -21.75390625 12.87109375 C-23.3828125 14.04296875 -23.3828125 14.04296875 -25.3828125 14.04296875 C-25.3828125 14.70296875 -25.3828125 15.36296875 -25.3828125 16.04296875 C-26.0428125 16.68234375 -26.7028125 17.32171875 -27.3828125 17.98046875 C-44.87515073 35.02682668 -49.66143762 60.73943071 -52.3828125 84.04296875 C-52.52638184 85.21122192 -52.52638184 85.21122192 -52.67285156 86.40307617 C-53.68057033 95.73350453 -53.62556387 105.10671567 -53.6328125 114.48046875 C-53.63381958 115.3842627 -53.63482666 116.28805664 -53.63586426 117.21923828 C-53.6086211 153.51994684 -50.37175238 193.4300194 -24.36328125 221.19921875 C-17.71095228 227.61705003 -8.78017131 233.07077369 0.390625 234.72265625 C3.6171875 236.04296875 3.6171875 236.04296875 5.1484375 239.68359375 C5.49629386 241.21459843 5.81778345 242.75175605 6.1171875 244.29296875 C8.64504704 255.03288028 12.56667705 267.96160702 21.6171875 275.04296875 C27.03616024 278.27663368 32.33953311 281.05236641 38.6171875 282.04296875 C38.6171875 282.37296875 38.6171875 282.70296875 38.6171875 283.04296875 C27.02436731 283.58922729 17.34507354 282.34262903 7.8984375 275.16796875 C-2.31587473 265.65326695 -7.74957939 249.58753989 -9.3828125 236.04296875 C-11.3009375 235.70265625 -11.3009375 235.70265625 -13.2578125 235.35546875 C-22.95583088 233.15482295 -31.26301237 227.93000618 -38.3828125 221.04296875 C-39.6640625 218.796875 -39.6640625 218.796875 -40.3828125 217.04296875 C-41.0428125 217.04296875 -41.7028125 217.04296875 -42.3828125 217.04296875 C-43.90661811 215.01021207 -45.28246393 213.0004197 -46.6328125 210.85546875 C-47.23561035 209.89870239 -47.23561035 209.89870239 -47.85058594 208.92260742 C-73.38080295 167.61741445 -72.20757621 104.79901699 -61.88769531 58.83789062 C-57.8109678 41.97335055 -50.42633985 25.8442554 -37.3828125 14.04296875 C-36.80660156 13.50027344 -36.23039062 12.95757812 -35.63671875 12.3984375 C-25.68727024 3.76555117 -12.9439086 0.23341475 0 0 Z " fill="#026123" transform="translate(147.3828125,88.95703125)"/>
<path d="M0 0 C4.95 0 9.9 0 15 0 C15 4.95 15 9.9 15 15 C19.95 15 24.9 15 30 15 C30 10.05 30 5.1 30 0 C34.95 0 39.9 0 45 0 C45 4.95 45 9.9 45 15 C49.95 15 54.9 15 60 15 C60 10.05 60 5.1 60 0 C64.95 0 69.9 0 75 0 C75 4.95 75 9.9 75 15 C79.95 15 84.9 15 90 15 C90 19.95 90 24.9 90 30 C94.95 30 99.9 30 105 30 C105 25.05 105 20.1 105 15 C109.95 15 114.9 15 120 15 C120 19.95 120 24.9 120 30 C124.95 30 129.9 30 135 30 C135 25.05 135 20.1 135 15 C139.95 15 144.9 15 150 15 C150 19.95 150 24.9 150 30 C153.3 30 156.6 30 160 30 C160 34.95 160 39.9 160 45 C156.7 45 153.4 45 150 45 C150 139.05 150 233.1 150 330 C149.34 330 148.68 330 148 330 C148.495 186.45 148.495 186.45 149 40 C143.06 39.34 137.12 38.68 131 38 C126.49779229 37.33823162 122.01432281 36.65386057 117.52734375 35.90625 C116.3533754 35.71405884 115.17940704 35.52186768 113.96986389 35.32385254 C111.5255263 34.9226958 109.08155016 34.51933053 106.63793945 34.11376953 C102.9138154 33.49607158 99.18847108 32.88618967 95.46289062 32.27734375 C93.06763353 31.8832669 90.67244855 31.4887514 88.27734375 31.09375 C87.17720444 30.91348267 86.07706512 30.73321533 84.94358826 30.54748535 C79.59994479 29.65763101 74.31840945 28.65701231 69.03941345 27.44317627 C65.86669784 26.75372692 62.67124357 26.30239361 59.45703125 25.8515625 C58.04938466 25.65080819 56.6417517 25.44995825 55.23413086 25.24902344 C54.15033646 25.09620911 54.15033646 25.09620911 53.04464722 24.94030762 C41.27990479 23.27844908 29.55577309 21.51550304 17.88793945 19.25634766 C13.20838447 18.35740691 8.57993609 17.68213544 3.83227539 17.25488281 C2 17 2 17 0 16 C0 10.72 0 5.44 0 0 Z " fill="#BBD0AF" transform="translate(210,15)"/>
<path d="M0 0 C6.2084707 0.12238921 11.87739266 2.00075044 16.61328125 6.078125 C24.34469601 14.48831493 26.51613002 23.25235751 28.5625 34.3125 C28.7584375 35.23546875 28.954375 36.1584375 29.15625 37.109375 C32.55786546 54.41759485 31.65866315 72.56953848 31.6875 90.125 C31.69017883 91.0429837 31.69285767 91.96096741 31.69561768 92.9067688 C31.73088897 108.87771604 31.58295468 124.69106468 28.625 140.4375 C28.37073242 141.87996094 28.37073242 141.87996094 28.11132812 143.3515625 C26.08880465 154.54849856 23.03760593 166.04090707 13.5625 173.3125 C7.61962635 176.22679381 2.99886249 176.5997725 -3.4375 175.3125 C1.3125 171.3125 1.3125 171.3125 3.5625 171.3125 C3.5625 170.6525 3.5625 169.9925 3.5625 169.3125 C4.2225 169.3125 4.8825 169.3125 5.5625 169.3125 C5.81 168.6525 6.0575 167.9925 6.3125 167.3125 C7.28025287 164.98989312 8.31507391 162.8939141 9.5 160.6875 C14.23207531 151.24094074 15.58425218 140.72840717 16.5625 130.3125 C16.65152588 129.38920898 16.74055176 128.46591797 16.83227539 127.51464844 C17.84739792 115.03562654 17.74857959 102.52905305 17.74780273 90.01708984 C17.74998722 86.08550145 17.76819121 82.15419519 17.78710938 78.22265625 C18.93026376 41.10043706 18.93026376 41.10043706 4.5703125 8.2265625 C1.70213024 5.65255278 -1.23068811 3.45037459 -4.4375 1.3125 C-3.4375 0.3125 -3.4375 0.3125 0 0 Z " fill="#036224" transform="translate(168.4375,119.6875)"/>
<path d="M0 0 C3.96 0 7.92 0 12 0 C12 8.91 12 17.82 12 27 C14.97 27 17.94 27 21 27 C21.99 27.33 22.98 27.66 24 28 C24.00331015 28.55677083 24.00662029 29.11354166 24.01003075 29.68718433 C24.09149125 43.2771177 24.18377922 56.86694111 24.28752708 70.45672321 C24.33737718 77.02882609 24.38370807 83.60091377 24.421875 90.1730957 C24.45887052 96.52092139 24.50526882 102.86861632 24.55806351 109.21632957 C24.57653181 111.6326689 24.59166738 114.04903617 24.60334396 116.46541786 C24.62033627 119.86160162 24.64940203 123.25749085 24.68115234 126.65356445 C24.68331253 127.64259766 24.68547272 128.63163086 24.68769836 129.65063477 C24.81648821 140.50296571 25.79558848 152.82117369 33.89453125 160.88671875 C37.66896834 163.86729718 41.28904694 165.82226173 46 167 C46 167.33 46 167.66 46 168 C36.63421517 168.47266578 29.20735168 167.85480826 21.6875 161.875 C12.85181445 153.42576591 12.09681167 141.25321342 11.82757568 129.61431885 C11.7438994 123.15162487 11.77467483 116.68953845 11.8046875 110.2265625 C11.80842438 107.8476066 11.81126816 105.46864916 11.81326294 103.08969116 C11.82084626 96.87227012 11.84044844 90.65494468 11.8626709 84.43756104 C11.88324436 78.07557467 11.8922891 71.71357264 11.90234375 65.3515625 C11.92369997 52.901 11.95777087 40.45050799 12 28 C11.05125 28.020625 10.1025 28.04125 9.125 28.0625 C6 28 6 28 4 27 C3.40576172 25.26928711 3.40576172 25.26928711 2.9296875 23.02734375 C2.75566406 22.20943359 2.58164063 21.39152344 2.40234375 20.54882812 C2.22832031 19.68708984 2.05429688 18.82535156 1.875 17.9375 C1.69324219 17.10283203 1.51148438 16.26816406 1.32421875 15.40820312 C0.23719591 10.16515688 -0.18561863 5.35200395 0 0 Z " fill="#026123" transform="translate(235,143)"/>
<path d="M0 0 C0 4.95 0 9.9 0 15 C-4.95 15 -9.9 15 -15 15 C-15 19.95 -15 24.9 -15 30 C-19.95 30 -24.9 30 -30 30 C-30 25.05 -30 20.1 -30 15 C-34.95 15 -39.9 15 -45 15 C-45 19.95 -45 24.9 -45 30 C-49.95 30 -54.9 30 -60 30 C-60 25.05 -60 20.1 -60 15 C-64.95 15 -69.9 15 -75 15 C-75 19.95 -75 24.9 -75 30 C-79.95 30 -84.9 30 -90 30 C-90 25.38 -90 20.76 -90 16 C-90.66 15.67 -91.32 15.34 -92 15 C-90.97382568 14.82984375 -89.94765137 14.6596875 -88.89038086 14.484375 C-83.90588326 13.65747634 -78.921673 12.82885264 -73.9375 12 C-73.0178244 11.84715546 -72.0981488 11.69431091 -71.15060425 11.53683472 C-59.71313202 9.63496698 -48.27952086 7.71217969 -36.8515625 5.75390625 C-35.77860428 5.57024506 -34.70564606 5.38658386 -33.60017395 5.19735718 C-28.3493358 4.29824669 -23.09901181 3.39627587 -17.84936523 2.49023438 C-15.93214471 2.1613662 -14.01490915 1.83258562 -12.09765625 1.50390625 C-11.218284 1.3511171 -10.33891174 1.19832794 -9.43289185 1.04090881 C-8.62625092 0.90309494 -7.81960999 0.76528107 -6.98852539 0.62329102 C-6.28691788 0.50228531 -5.58531036 0.3812796 -4.86244202 0.25660706 C-3 0 -3 0 0 0 Z " fill="#CFD2CE" transform="translate(195,405)"/>
<path d="M0 0 C4.95 0 9.9 0 15 0 C15 4.95 15 9.9 15 15 C19.95 15 24.9 15 30 15 C30 10.05 30 5.1 30 0 C34.95 0 39.9 0 45 0 C45 4.95 45 9.9 45 15 C49.95 15 54.9 15 60 15 C60 10.05 60 5.1 60 0 C64.95 0 69.9 0 75 0 C75 9.24 75 18.48 75 28 C57.11668913 25.66739423 39.31736443 22.89096811 21.51196289 20.03381348 C18.01958528 19.47459894 14.52657837 18.92475735 11.02783203 18.40673828 C9.85462402 18.23255371 8.68141602 18.05836914 7.47265625 17.87890625 C6.4556665 17.73138916 5.43867676 17.58387207 4.39086914 17.43188477 C2 17 2 17 0 16 C0 10.72 0 5.44 0 0 Z " fill="#CFD0CF" transform="translate(210,15)"/>
<path d="M0 0 C0.33 0 0.66 0 1 0 C1.33 112.86 1.66 225.72 2 342 C2.66 342.33 3.32 342.66 4 343 C4 343.66 4 344.32 4 345 C4.66 345 5.32 345 6 345 C6 345.66 6 346.32 6 347 C6.5878125 347.26039063 7.175625 347.52078125 7.78125 347.7890625 C10.85961943 349.46915849 12.91782767 351.76020594 15.3125 354.2890625 C17.0290322 356.13242806 17.0290322 356.13242806 19.5 357.75 C22.19259961 361.78889942 20.6618377 366.3671361 20 371 C15.05 371 10.1 371 5 371 C5 366.05 5 361.1 5 356 C0.05 356 -4.9 356 -10 356 C-10 351.05 -10 346.1 -10 341 C-6.7 341 -3.4 341 0 341 C0 228.47 0 115.94 0 0 Z " fill="#96B6A1" transform="translate(10,64)"/>
<path d="M0 0 C8.25 0 16.5 0 25 0 C25 14.85 25 29.7 25 45 C21.7 45 18.4 45 15 45 C15 35.1 15 25.2 15 15 C10.05 15 5.1 15 0 15 C0 10.05 0 5.1 0 0 Z " fill="#CFD0CF" transform="translate(345,0)"/>
<path d="M0 0 C1.51400391 0.01740234 1.51400391 0.01740234 3.05859375 0.03515625 C4.07050781 0.04417969 5.08242188 0.05320312 6.125 0.0625 C7.29869141 0.07990234 7.29869141 0.07990234 8.49609375 0.09765625 C7.8886284 7.73315819 6.25814853 15.04832172 4.48486328 22.48413086 C3.99165234 24.55379374 3.50696441 26.6253211 3.0234375 28.69726562 C0.64508668 38.79967039 0.64508668 38.79967039 -0.50390625 41.09765625 C-4.46390625 40.76765625 -8.42390625 40.43765625 -12.50390625 40.09765625 C-11.2451107 34.56070049 -9.98159542 29.02485171 -8.71362305 23.48999023 C-8.2826232 21.60552428 -7.85293258 19.7207584 -7.42456055 17.83569336 C-6.8098907 15.13185663 -6.19057615 12.42912071 -5.5703125 9.7265625 C-5.37860977 8.87864639 -5.18690704 8.03073029 -4.98939514 7.15711975 C-3.36859352 0.1313804 -3.36859352 0.1313804 0 0 Z " fill="#016022" transform="translate(262.50390625,102.90234375)"/>
<path d="M0 0 C4.95 0 9.9 0 15 0 C15.28943708 3.2320474 15.5121402 5.83551266 15 9 C12.4375 11.375 12.4375 11.375 10.7890625 12.4921875 C6.29158996 16.28263379 3.11352391 22.49975842 0.7421875 27.82421875 C-1 30 -1 30 -4.35546875 30.48828125 C-6.25232422 30.40126953 -6.25232422 30.40126953 -8.1875 30.3125 C-11.5596875 30.1578125 -11.5596875 30.1578125 -15 30 C-15 25.05 -15 20.1 -15 15 C-10.05 15 -5.1 15 0 15 C0 10.05 0 5.1 0 0 Z " fill="#FEFEFE" transform="translate(15,15)"/>
<path d="M0 0 C4.95 0 9.9 0 15 0 C15 4.29 15 8.58 15 13 C15.66 13.33 16.32 13.66 17 14 C15.98421875 14.08636719 14.9684375 14.17273437 13.921875 14.26171875 C4.84564281 15.14677308 -2.74279188 16.89769278 -11 21 C-11.76828125 21.3815625 -12.5365625 21.763125 -13.328125 22.15625 C-13.87984375 22.4346875 -14.4315625 22.713125 -15 23 C-15 20.36 -15 17.72 -15 15 C-10.05 15 -5.1 15 0 15 C0 10.05 0 5.1 0 0 Z " fill="#CFD0CF" transform="translate(45,0)"/>
<path d="M0 0 C4.95 0 9.9 0 15 0 C15 4.95 15 9.9 15 15 C19.95 15 24.9 15 30 15 C30 15.99 30 16.98 30 18 C1.86666667 14.86666667 1.86666667 14.86666667 0 13 C-0.14393457 8.66469082 -0.04212061 4.33842269 0 0 Z " fill="#CED0CD" transform="translate(285,30)"/>
<path d="M0 0 C4.95 0 9.9 0 15 0 C15 4.95 15 9.9 15 15 C10.37955602 15.9240888 8.16186213 15.89836985 3.6875 15.0625 C2.61886719 14.86785156 1.55023438 14.67320313 0.44921875 14.47265625 C-0.35902344 14.31667969 -1.16726562 14.16070312 -2 14 C-1.34 13.67 -0.68 13.34 0 13 C0 8.71 0 4.42 0 0 Z " fill="#CED0CD" transform="translate(105,0)"/>
<path d="M0 0 C4.95 0 9.9 0 15 0 C15 4.95 15 9.9 15 15 C10.05 15 5.1 15 0 15 C0 10.05 0 5.1 0 0 Z " fill="#CFD0CF" transform="translate(345,420)"/>
<path d="M0 0 C4.95 0 9.9 0 15 0 C15 4.95 15 9.9 15 15 C10.05 15 5.1 15 0 15 C0 10.05 0 5.1 0 0 Z " fill="#FFFFFF" transform="translate(330,420)"/>
<path d="M0 0 C4.95 0 9.9 0 15 0 C15 4.95 15 9.9 15 15 C10.05 15 5.1 15 0 15 C0 10.05 0 5.1 0 0 Z " fill="#CFD0CF" transform="translate(315,420)"/>
<path d="M0 0 C4.95 0 9.9 0 15 0 C15 4.95 15 9.9 15 15 C10.05 15 5.1 15 0 15 C0 10.05 0 5.1 0 0 Z " fill="#FFFFFF" transform="translate(300,420)"/>
<path d="M0 0 C4.95 0 9.9 0 15 0 C15 4.95 15 9.9 15 15 C10.05 15 5.1 15 0 15 C0 10.05 0 5.1 0 0 Z " fill="#CFD0CF" transform="translate(285,420)"/>
<path d="M0 0 C4.95 0 9.9 0 15 0 C15 4.95 15 9.9 15 15 C10.05 15 5.1 15 0 15 C0 10.05 0 5.1 0 0 Z " fill="#FFFFFF" transform="translate(270,420)"/>
<path d="M0 0 C4.95 0 9.9 0 15 0 C15 4.95 15 9.9 15 15 C10.05 15 5.1 15 0 15 C0 10.05 0 5.1 0 0 Z " fill="#CFD0CF" transform="translate(255,420)"/>
<path d="M0 0 C4.95 0 9.9 0 15 0 C15 4.95 15 9.9 15 15 C10.05 15 5.1 15 0 15 C0 10.05 0 5.1 0 0 Z " fill="#FFFFFF" transform="translate(240,420)"/>
<path d="M0 0 C4.95 0 9.9 0 15 0 C15 4.95 15 9.9 15 15 C10.05 15 5.1 15 0 15 C0 10.05 0 5.1 0 0 Z " fill="#CFD0CF" transform="translate(225,420)"/>
<path d="M0 0 C4.95 0 9.9 0 15 0 C15 4.95 15 9.9 15 15 C10.05 15 5.1 15 0 15 C0 10.05 0 5.1 0 0 Z " fill="#FFFFFF" transform="translate(210,420)"/>
<path d="M0 0 C4.95 0 9.9 0 15 0 C15 4.95 15 9.9 15 15 C10.05 15 5.1 15 0 15 C0 10.05 0 5.1 0 0 Z " fill="#CFD0CF" transform="translate(195,420)"/>
<path d="M0 0 C4.95 0 9.9 0 15 0 C15 4.95 15 9.9 15 15 C10.05 15 5.1 15 0 15 C0 10.05 0 5.1 0 0 Z " fill="#FFFFFF" transform="translate(180,420)"/>
<path d="M0 0 C4.95 0 9.9 0 15 0 C15 4.95 15 9.9 15 15 C10.05 15 5.1 15 0 15 C0 10.05 0 5.1 0 0 Z " fill="#CFD0CF" transform="translate(165,420)"/>
<path d="M0 0 C4.95 0 9.9 0 15 0 C15 4.95 15 9.9 15 15 C10.05 15 5.1 15 0 15 C0 10.05 0 5.1 0 0 Z " fill="#FFFFFF" transform="translate(150,420)"/>
<path d="M0 0 C4.95 0 9.9 0 15 0 C15 4.95 15 9.9 15 15 C10.05 15 5.1 15 0 15 C0 10.05 0 5.1 0 0 Z " fill="#CFD0CF" transform="translate(135,420)"/>
<path d="M0 0 C4.95 0 9.9 0 15 0 C15 4.95 15 9.9 15 15 C10.05 15 5.1 15 0 15 C0 10.05 0 5.1 0 0 Z " fill="#FFFFFF" transform="translate(120,420)"/>
<path d="M0 0 C4.95 0 9.9 0 15 0 C15 4.95 15 9.9 15 15 C10.05 15 5.1 15 0 15 C0 10.05 0 5.1 0 0 Z " fill="#FFFFFF" transform="translate(345,405)"/>
<path d="M0 0 C4.95 0 9.9 0 15 0 C15 4.95 15 9.9 15 15 C10.05 15 5.1 15 0 15 C0 10.05 0 5.1 0 0 Z " fill="#CFD0CF" transform="translate(330,405)"/>
<path d="M0 0 C4.95 0 9.9 0 15 0 C15 4.95 15 9.9 15 15 C10.05 15 5.1 15 0 15 C0 10.05 0 5.1 0 0 Z " fill="#FFFFFF" transform="translate(315,405)"/>
<path d="M0 0 C4.95 0 9.9 0 15 0 C15 4.95 15 9.9 15 15 C10.05 15 5.1 15 0 15 C0 10.05 0 5.1 0 0 Z " fill="#CFD0CF" transform="translate(300,405)"/>
<path d="M0 0 C4.95 0 9.9 0 15 0 C15 4.95 15 9.9 15 15 C10.05 15 5.1 15 0 15 C0 10.05 0 5.1 0 0 Z " fill="#FFFFFF" transform="translate(285,405)"/>
<path d="M0 0 C4.95 0 9.9 0 15 0 C15 4.95 15 9.9 15 15 C10.05 15 5.1 15 0 15 C0 10.05 0 5.1 0 0 Z " fill="#CFD0CF" transform="translate(270,405)"/>
<path d="M0 0 C4.95 0 9.9 0 15 0 C15 4.95 15 9.9 15 15 C10.05 15 5.1 15 0 15 C0 10.05 0 5.1 0 0 Z " fill="#FFFFFF" transform="translate(255,405)"/>
<path d="M0 0 C4.95 0 9.9 0 15 0 C15 4.95 15 9.9 15 15 C10.05 15 5.1 15 0 15 C0 10.05 0 5.1 0 0 Z " fill="#CFD0CF" transform="translate(240,405)"/>
<path d="M0 0 C4.95 0 9.9 0 15 0 C15 4.95 15 9.9 15 15 C10.05 15 5.1 15 0 15 C0 10.05 0 5.1 0 0 Z " fill="#FFFFFF" transform="translate(225,405)"/>
<path d="M0 0 C4.95 0 9.9 0 15 0 C15 4.95 15 9.9 15 15 C10.05 15 5.1 15 0 15 C0 10.05 0 5.1 0 0 Z " fill="#CFD0CF" transform="translate(210,405)"/>
<path d="M0 0 C4.95 0 9.9 0 15 0 C15 4.95 15 9.9 15 15 C10.05 15 5.1 15 0 15 C0 10.05 0 5.1 0 0 Z " fill="#CFD0CF" transform="translate(345,390)"/>
<path d="M0 0 C4.95 0 9.9 0 15 0 C15 4.95 15 9.9 15 15 C10.05 15 5.1 15 0 15 C0 10.05 0 5.1 0 0 Z " fill="#FFFFFF" transform="translate(330,390)"/>
<path d="M0 0 C4.95 0 9.9 0 15 0 C15 4.95 15 9.9 15 15 C10.05 15 5.1 15 0 15 C0 10.05 0 5.1 0 0 Z " fill="#CFD0CF" transform="translate(315,390)"/>
<path d="M0 0 C4.95 0 9.9 0 15 0 C15 4.95 15 9.9 15 15 C10.05 15 5.1 15 0 15 C0 10.05 0 5.1 0 0 Z " fill="#FFFFFF" transform="translate(300,390)"/>
<path d="M0 0 C4.95 0 9.9 0 15 0 C15 4.95 15 9.9 15 15 C10.05 15 5.1 15 0 15 C0 10.05 0 5.1 0 0 Z " fill="#FFFFFF" transform="translate(345,375)"/>
<path d="M0 0 C4.95 0 9.9 0 15 0 C15 4.95 15 9.9 15 15 C10.05 15 5.1 15 0 15 C0 10.05 0 5.1 0 0 Z " fill="#CFD0CF" transform="translate(345,30)"/>
<path d="M0 0 C4.95 0 9.9 0 15 0 C15 4.95 15 9.9 15 15 C10.05 15 5.1 15 0 15 C0 10.05 0 5.1 0 0 Z " fill="#FFFFFF" transform="translate(330,30)"/>
<path d="M0 0 C4.95 0 9.9 0 15 0 C15 4.95 15 9.9 15 15 C10.05 15 5.1 15 0 15 C0 10.05 0 5.1 0 0 Z " fill="#FFFFFF" transform="translate(300,30)"/>
<path d="M0 0 C4.95 0 9.9 0 15 0 C15 4.95 15 9.9 15 15 C10.05 15 5.1 15 0 15 C0 10.05 0 5.1 0 0 Z " fill="#FFFFFF" transform="translate(345,15)"/>
<path d="M0 0 C4.95 0 9.9 0 15 0 C15 4.95 15 9.9 15 15 C10.05 15 5.1 15 0 15 C0 10.05 0 5.1 0 0 Z " fill="#CFD0CF" transform="translate(330,15)"/>
<path d="M0 0 C4.95 0 9.9 0 15 0 C15 4.95 15 9.9 15 15 C10.05 15 5.1 15 0 15 C0 10.05 0 5.1 0 0 Z " fill="#FFFFFF" transform="translate(315,15)"/>
<path d="M0 0 C4.95 0 9.9 0 15 0 C15 4.95 15 9.9 15 15 C10.05 15 5.1 15 0 15 C0 10.05 0 5.1 0 0 Z " fill="#CFD0CF" transform="translate(300,15)"/>
<path d="M0 0 C4.95 0 9.9 0 15 0 C15 4.95 15 9.9 15 15 C10.05 15 5.1 15 0 15 C0 10.05 0 5.1 0 0 Z " fill="#FFFFFF" transform="translate(285,15)"/>
<path d="M0 0 C4.95 0 9.9 0 15 0 C15 4.95 15 9.9 15 15 C10.05 15 5.1 15 0 15 C0 10.05 0 5.1 0 0 Z " fill="#CFD0CF" transform="translate(270,15)"/>
<path d="M0 0 C4.95 0 9.9 0 15 0 C15 4.95 15 9.9 15 15 C10.05 15 5.1 15 0 15 C0 10.05 0 5.1 0 0 Z " fill="#FFFFFF" transform="translate(255,15)"/>
<path d="M0 0 C4.95 0 9.9 0 15 0 C15 4.95 15 9.9 15 15 C10.05 15 5.1 15 0 15 C0 10.05 0 5.1 0 0 Z " fill="#CFD0CF" transform="translate(240,15)"/>
<path d="M0 0 C4.95 0 9.9 0 15 0 C15 4.95 15 9.9 15 15 C10.05 15 5.1 15 0 15 C0 10.05 0 5.1 0 0 Z " fill="#FFFFFF" transform="translate(225,15)"/>
<path d="M0 0 C4.95 0 9.9 0 15 0 C15 4.95 15 9.9 15 15 C10.05 15 5.1 15 0 15 C0 10.05 0 5.1 0 0 Z " fill="#CFD0CF" transform="translate(0,15)"/>
<path d="M0 0 C4.95 0 9.9 0 15 0 C15 4.95 15 9.9 15 15 C10.05 15 5.1 15 0 15 C0 10.05 0 5.1 0 0 Z " fill="#FFFFFF" transform="translate(330,0)"/>
<path d="M0 0 C4.95 0 9.9 0 15 0 C15 4.95 15 9.9 15 15 C10.05 15 5.1 15 0 15 C0 10.05 0 5.1 0 0 Z " fill="#CFD0CF" transform="translate(315,0)"/>
<path d="M0 0 C4.95 0 9.9 0 15 0 C15 4.95 15 9.9 15 15 C10.05 15 5.1 15 0 15 C0 10.05 0 5.1 0 0 Z " fill="#FFFFFF" transform="translate(300,0)"/>
<path d="M0 0 C4.95 0 9.9 0 15 0 C15 4.95 15 9.9 15 15 C10.05 15 5.1 15 0 15 C0 10.05 0 5.1 0 0 Z " fill="#CFD0CF" transform="translate(285,0)"/>
<path d="M0 0 C4.95 0 9.9 0 15 0 C15 4.95 15 9.9 15 15 C10.05 15 5.1 15 0 15 C0 10.05 0 5.1 0 0 Z " fill="#FFFFFF" transform="translate(270,0)"/>
<path d="M0 0 C4.95 0 9.9 0 15 0 C15 4.95 15 9.9 15 15 C10.05 15 5.1 15 0 15 C0 10.05 0 5.1 0 0 Z " fill="#CFD0CF" transform="translate(255,0)"/>
<path d="M0 0 C4.95 0 9.9 0 15 0 C15 4.95 15 9.9 15 15 C10.05 15 5.1 15 0 15 C0 10.05 0 5.1 0 0 Z " fill="#FFFFFF" transform="translate(240,0)"/>
<path d="M0 0 C4.95 0 9.9 0 15 0 C15 4.95 15 9.9 15 15 C10.05 15 5.1 15 0 15 C0 10.05 0 5.1 0 0 Z " fill="#CFD0CF" transform="translate(225,0)"/>
<path d="M0 0 C4.95 0 9.9 0 15 0 C15 4.95 15 9.9 15 15 C10.05 15 5.1 15 0 15 C0 10.05 0 5.1 0 0 Z " fill="#FFFFFF" transform="translate(210,0)"/>
<path d="M0 0 C4.95 0 9.9 0 15 0 C15 4.95 15 9.9 15 15 C10.05 15 5.1 15 0 15 C0 10.05 0 5.1 0 0 Z " fill="#CFD0CF" transform="translate(195,0)"/>
<path d="M0 0 C4.95 0 9.9 0 15 0 C15 4.95 15 9.9 15 15 C10.05 15 5.1 15 0 15 C0 10.05 0 5.1 0 0 Z " fill="#FFFFFF" transform="translate(180,0)"/>
<path d="M0 0 C4.95 0 9.9 0 15 0 C15 4.95 15 9.9 15 15 C10.05 15 5.1 15 0 15 C0 10.05 0 5.1 0 0 Z " fill="#CFD0CF" transform="translate(165,0)"/>
<path d="M0 0 C4.95 0 9.9 0 15 0 C15 4.95 15 9.9 15 15 C10.05 15 5.1 15 0 15 C0 10.05 0 5.1 0 0 Z " fill="#FFFFFF" transform="translate(150,0)"/>
<path d="M0 0 C4.95 0 9.9 0 15 0 C15 4.95 15 9.9 15 15 C10.05 15 5.1 15 0 15 C0 10.05 0 5.1 0 0 Z " fill="#CFD0CF" transform="translate(135,0)"/>
<path d="M0 0 C4.95 0 9.9 0 15 0 C15 4.95 15 9.9 15 15 C10.05 15 5.1 15 0 15 C0 10.05 0 5.1 0 0 Z " fill="#FFFFFF" transform="translate(30,0)"/>
<path d="M0 0 C4.95 0 9.9 0 15 0 C15 4.95 15 9.9 15 15 C10.05 15 5.1 15 0 15 C0 10.05 0 5.1 0 0 Z " fill="#FFFFFF" transform="translate(0,0)"/>
<path d="M0 0 C4.95 0 9.9 0 15 0 C15.09765625 10.83984375 15.09765625 10.83984375 15 14 C14 15 14 15 10.83984375 15.09765625 C7.2265625 15.06510417 3.61328125 15.03255208 0 15 C0 10.05 0 5.1 0 0 Z " fill="#FEFEFE" transform="translate(0,30)"/>
<path d="M0 0 C11.28703704 -0.49074074 11.28703704 -0.49074074 14.40625 1.65625 C17.2993861 5.91086191 15.70115196 10.09193631 15 15 C10.05 15 5.1 15 0 15 C0 10.05 0 5.1 0 0 Z " fill="#CECFCE" transform="translate(15,420)"/>
<path d="M0 0 C4.95 0 9.9 0 15 0 C15 4.95 15 9.9 15 15 C12.958125 15.061875 12.958125 15.061875 10.875 15.125 C10.10929688 15.14820313 9.34359375 15.17140625 8.5546875 15.1953125 C6 15 6 15 0 13 C0 8.71 0 4.42 0 0 Z " fill="#FEFEFD" transform="translate(195,15)"/>
<path d="M0 0 C0 4.95 0 9.9 0 15 C-4.95 15 -9.9 15 -15 15 C-15 10.71 -15 6.42 -15 2 C-3.375 0 -3.375 0 0 0 Z " fill="#CED0CD" transform="translate(195,405)"/>
<path d="M0 0 C0 4.95 0 9.9 0 15 C-4.95 15 -9.9 15 -15 15 C-15 11.04 -15 7.08 -15 3 C-10.0942399 1.20520972 -5.25513819 0 0 0 Z " fill="#FDFEFD" transform="translate(285,390)"/>
<path d="M0 0 C0 4.62 0 9.24 0 14 C-4.95 14 -9.9 14 -15 14 C-15 10.04 -15 6.08 -15 2 C-9.78757146 -0.13843222 -5.54518774 -0.16803599 0 0 Z " fill="#FDFDFC" transform="translate(105,421)"/>
<path d="M0 0 C4.62 0 9.24 0 14 0 C13.01 6.27 12.02 12.54 11 19 C10.67 17.68 10.34 16.36 10 15 C6.7 15 3.4 15 0 15 C0 10.05 0 5.1 0 0 Z " fill="#CDD0CC" transform="translate(0,45)"/>
<path d="M0 0 C4.95 0 9.9 0 15 0 C15.33 4.62 15.66 9.24 16 14 C2.25 12.125 2.25 12.125 0 11 C0 7.37 0 3.74 0 0 Z " fill="#CED0CD" transform="translate(180,15)"/>
<path d="M0 0 C4.95 0 9.9 0 15 0 C15 4.29 15 8.58 15 13 C10.05 12.67 5.1 12.34 0 12 C0 8.04 0 4.08 0 0 Z " fill="#FEFEFE" transform="translate(90,0)"/>
<path d="M0 0 C1.32 0.33 2.64 0.66 4 1 C4 5.95 4 10.9 4 16 C-0.95 16 -5.9 16 -11 16 C-11.879464 10.98705523 -11.879464 10.98705523 -11 8 C-7.96394036 5.15335585 -4.57360973 3.10751343 -1 1 C-0.67 0.67 -0.34 0.34 0 0 Z " fill="#CED0CD" transform="translate(341,374)"/>
<path d="M0 0 C4.95 0 9.9 0 15 0 C15 3.96 15 7.92 15 12 C10.05 12 5.1 12 0 12 C0 8.04 0 4.08 0 0 Z " fill="#CED0CE" transform="translate(75,0)"/>
<path d="M0 0 C4.95 0 9.9 0 15 0 C15 4.29 15 8.58 15 13 C7.575 12.01 7.575 12.01 0 11 C0 7.37 0 3.74 0 0 Z " fill="#FEFEFE" transform="translate(270,30)"/>
<path d="M0 0 C-0.33 3.96 -0.66 7.92 -1 12 C-5.95 12 -10.9 12 -16 12 C-16 8.7 -16 5.4 -16 2 C-13.77670261 1.50224685 -11.55318933 1.00541903 -9.328125 0.515625 C-7.57027986 0.12630359 -5.81556891 -0.27720728 -4.0625 -0.6875 C-2 -1 -2 -1 0 0 Z " fill="#CED0CD" transform="translate(271,393)"/>
<path d="M0 0 C0 3.96 0 7.92 0 12 C-4.95 12 -9.9 12 -15 12 C-15 9.03 -15 6.06 -15 3 C-15.66 2.67 -16.32 2.34 -17 2 C-15.10507994 1.66151348 -13.20901534 1.32943089 -11.3125 1 C-9.72888672 0.7215625 -9.72888672 0.7215625 -8.11328125 0.4375 C-5 0 -5 0 0 0 Z " fill="#CED0CC" transform="translate(90,423)"/>
<path d="M0 0 C0 3.96 0 7.92 0 12 C-4.95 12 -9.9 12 -15 12 C-15 8.7 -15 5.4 -15 2 C-13.2508503 1.66223316 -11.50063855 1.32996329 -9.75 1 C-8.77546875 0.814375 -7.8009375 0.62875 -6.796875 0.4375 C-4 0 -4 0 0 0 Z " fill="#FDFEFD" transform="translate(180,408)"/>
<path d="M0 0 C3.3 0 6.6 0 10 0 C10 4.95 10 9.9 10 15 C6.7 15 3.4 15 0 15 C-1.52474938 9.91750205 -0.62168072 5.18067268 0 0 Z " fill="#CFD0CF" transform="translate(360,45)"/>
<path d="M0 0 C3.3 0 6.6 0 10 0 C10 4.95 10 9.9 10 15 C6.7 15 3.4 15 0 15 C0 10.05 0 5.1 0 0 Z " fill="#CFD0CF" transform="translate(360,405)"/>
<path d="M0 0 C3.3 0 6.6 0 10 0 C10 4.95 10 9.9 10 15 C6.7 15 3.4 15 0 15 C0 10.05 0 5.1 0 0 Z " fill="#FFFFFF" transform="translate(360,390)"/>
<path d="M0 0 C3.3 0 6.6 0 10 0 C10 4.95 10 9.9 10 15 C6.7 15 3.4 15 0 15 C0 10.05 0 5.1 0 0 Z " fill="#FFFFFF" transform="translate(0,390)"/>
<path d="M0 0 C3.3 0 6.6 0 10 0 C10 4.95 10 9.9 10 15 C6.7 15 3.4 15 0 15 C0 10.05 0 5.1 0 0 Z " fill="#CFD0CF" transform="translate(360,375)"/>
<path d="M0 0 C3.3 0 6.6 0 10 0 C10 4.95 10 9.9 10 15 C6.7 15 3.4 15 0 15 C0 10.05 0 5.1 0 0 Z " fill="#D0D1D0" transform="translate(0,375)"/>
<path d="M0 0 C3.3 0 6.6 0 10 0 C10 4.95 10 9.9 10 15 C6.7 15 3.4 15 0 15 C0 10.05 0 5.1 0 0 Z " fill="#FFFFFF" transform="translate(360,360)"/>
<path d="M0 0 C3.3 0 6.6 0 10 0 C10 4.95 10 9.9 10 15 C6.7 15 3.4 15 0 15 C0 10.05 0 5.1 0 0 Z " fill="#FFFFFF" transform="translate(0,360)"/>
<path d="M0 0 C3.3 0 6.6 0 10 0 C10 4.95 10 9.9 10 15 C6.7 15 3.4 15 0 15 C0 10.05 0 5.1 0 0 Z " fill="#CFD0CF" transform="translate(360,345)"/>
<path d="M0 0 C3.3 0 6.6 0 10 0 C10 4.95 10 9.9 10 15 C6.7 15 3.4 15 0 15 C0 10.05 0 5.1 0 0 Z " fill="#D0D1D0" transform="translate(0,345)"/>
<path d="M0 0 C3.3 0 6.6 0 10 0 C10 4.95 10 9.9 10 15 C6.7 15 3.4 15 0 15 C0 10.05 0 5.1 0 0 Z " fill="#FFFFFF" transform="translate(360,330)"/>
<path d="M0 0 C3.3 0 6.6 0 10 0 C10 4.95 10 9.9 10 15 C6.7 15 3.4 15 0 15 C0 10.05 0 5.1 0 0 Z " fill="#FFFFFF" transform="translate(0,330)"/>
<path d="M0 0 C3.3 0 6.6 0 10 0 C10 4.95 10 9.9 10 15 C6.7 15 3.4 15 0 15 C0 10.05 0 5.1 0 0 Z " fill="#D0D1D0" transform="translate(360,315)"/>
<path d="M0 0 C3.3 0 6.6 0 10 0 C10 4.95 10 9.9 10 15 C6.7 15 3.4 15 0 15 C0 10.05 0 5.1 0 0 Z " fill="#D0D1D0" transform="translate(0,315)"/>
<path d="M0 0 C3.3 0 6.6 0 10 0 C10 4.95 10 9.9 10 15 C6.7 15 3.4 15 0 15 C0 10.05 0 5.1 0 0 Z " fill="#FFFFFF" transform="translate(360,300)"/>
<path d="M0 0 C3.3 0 6.6 0 10 0 C10 4.95 10 9.9 10 15 C6.7 15 3.4 15 0 15 C0 10.05 0 5.1 0 0 Z " fill="#FFFFFF" transform="translate(0,300)"/>
<path d="M0 0 C3.3 0 6.6 0 10 0 C10 4.95 10 9.9 10 15 C6.7 15 3.4 15 0 15 C0 10.05 0 5.1 0 0 Z " fill="#D0D1D0" transform="translate(360,285)"/>
<path d="M0 0 C3.3 0 6.6 0 10 0 C10 4.95 10 9.9 10 15 C6.7 15 3.4 15 0 15 C0 10.05 0 5.1 0 0 Z " fill="#D0D1D0" transform="translate(0,285)"/>
<path d="M0 0 C3.3 0 6.6 0 10 0 C10 4.95 10 9.9 10 15 C6.7 15 3.4 15 0 15 C0 10.05 0 5.1 0 0 Z " fill="#FFFFFF" transform="translate(360,270)"/>
<path d="M0 0 C3.3 0 6.6 0 10 0 C10 4.95 10 9.9 10 15 C6.7 15 3.4 15 0 15 C0 10.05 0 5.1 0 0 Z " fill="#FFFFFF" transform="translate(0,270)"/>
<path d="M0 0 C3.3 0 6.6 0 10 0 C10 4.95 10 9.9 10 15 C6.7 15 3.4 15 0 15 C0 10.05 0 5.1 0 0 Z " fill="#D0D1D0" transform="translate(360,255)"/>
<path d="M0 0 C3.3 0 6.6 0 10 0 C10 4.95 10 9.9 10 15 C6.7 15 3.4 15 0 15 C0 10.05 0 5.1 0 0 Z " fill="#D0D1D0" transform="translate(0,255)"/>
<path d="M0 0 C3.3 0 6.6 0 10 0 C10 4.95 10 9.9 10 15 C6.7 15 3.4 15 0 15 C0 10.05 0 5.1 0 0 Z " fill="#FFFFFF" transform="translate(360,240)"/>
<path d="M0 0 C3.3 0 6.6 0 10 0 C10 4.95 10 9.9 10 15 C6.7 15 3.4 15 0 15 C0 10.05 0 5.1 0 0 Z " fill="#FFFFFF" transform="translate(0,240)"/>
<path d="M0 0 C3.3 0 6.6 0 10 0 C10 4.95 10 9.9 10 15 C6.7 15 3.4 15 0 15 C0 10.05 0 5.1 0 0 Z " fill="#D0D1D0" transform="translate(360,225)"/>
<path d="M0 0 C3.3 0 6.6 0 10 0 C10 4.95 10 9.9 10 15 C6.7 15 3.4 15 0 15 C0 10.05 0 5.1 0 0 Z " fill="#D0D1D0" transform="translate(0,225)"/>
<path d="M0 0 C3.3 0 6.6 0 10 0 C10 4.95 10 9.9 10 15 C6.7 15 3.4 15 0 15 C0 10.05 0 5.1 0 0 Z " fill="#FFFFFF" transform="translate(360,210)"/>
<path d="M0 0 C3.3 0 6.6 0 10 0 C10 4.95 10 9.9 10 15 C6.7 15 3.4 15 0 15 C0 10.05 0 5.1 0 0 Z " fill="#FFFFFF" transform="translate(0,210)"/>
<path d="M0 0 C3.3 0 6.6 0 10 0 C10 4.95 10 9.9 10 15 C6.7 15 3.4 15 0 15 C0 10.05 0 5.1 0 0 Z " fill="#D0D1D0" transform="translate(360,195)"/>
<path d="M0 0 C3.3 0 6.6 0 10 0 C10 4.95 10 9.9 10 15 C6.7 15 3.4 15 0 15 C0 10.05 0 5.1 0 0 Z " fill="#D0D1D0" transform="translate(0,195)"/>
<path d="M0 0 C3.3 0 6.6 0 10 0 C10 4.95 10 9.9 10 15 C6.7 15 3.4 15 0 15 C0 10.05 0 5.1 0 0 Z " fill="#FFFFFF" transform="translate(360,180)"/>
<path d="M0 0 C3.3 0 6.6 0 10 0 C10 4.95 10 9.9 10 15 C6.7 15 3.4 15 0 15 C0 10.05 0 5.1 0 0 Z " fill="#FFFFFF" transform="translate(0,180)"/>
<path d="M0 0 C3.3 0 6.6 0 10 0 C10 4.95 10 9.9 10 15 C6.7 15 3.4 15 0 15 C0 10.05 0 5.1 0 0 Z " fill="#D0D1D0" transform="translate(360,165)"/>
<path d="M0 0 C3.3 0 6.6 0 10 0 C10 4.95 10 9.9 10 15 C6.7 15 3.4 15 0 15 C0 10.05 0 5.1 0 0 Z " fill="#D0D1D0" transform="translate(0,165)"/>
<path d="M0 0 C3.3 0 6.6 0 10 0 C10 4.95 10 9.9 10 15 C6.7 15 3.4 15 0 15 C0 10.05 0 5.1 0 0 Z " fill="#FFFFFF" transform="translate(360,150)"/>
<path d="M0 0 C3.3 0 6.6 0 10 0 C10 4.95 10 9.9 10 15 C6.7 15 3.4 15 0 15 C0 10.05 0 5.1 0 0 Z " fill="#FFFFFF" transform="translate(0,150)"/>
<path d="M0 0 C3.3 0 6.6 0 10 0 C10 4.95 10 9.9 10 15 C6.7 15 3.4 15 0 15 C0 10.05 0 5.1 0 0 Z " fill="#D0D1D0" transform="translate(360,135)"/>
<path d="M0 0 C3.3 0 6.6 0 10 0 C10 4.95 10 9.9 10 15 C6.7 15 3.4 15 0 15 C0 10.05 0 5.1 0 0 Z " fill="#D0D1D0" transform="translate(0,135)"/>
<path d="M0 0 C3.3 0 6.6 0 10 0 C10 4.95 10 9.9 10 15 C6.7 15 3.4 15 0 15 C0 10.05 0 5.1 0 0 Z " fill="#FFFFFF" transform="translate(360,120)"/>
<path d="M0 0 C3.3 0 6.6 0 10 0 C10 4.95 10 9.9 10 15 C6.7 15 3.4 15 0 15 C0 10.05 0 5.1 0 0 Z " fill="#FFFFFF" transform="translate(0,120)"/>
<path d="M0 0 C3.3 0 6.6 0 10 0 C10 4.95 10 9.9 10 15 C6.7 15 3.4 15 0 15 C0 10.05 0 5.1 0 0 Z " fill="#D0D1D0" transform="translate(360,105)"/>
<path d="M0 0 C3.3 0 6.6 0 10 0 C10 4.95 10 9.9 10 15 C6.7 15 3.4 15 0 15 C0 10.05 0 5.1 0 0 Z " fill="#D0D1D0" transform="translate(0,105)"/>
<path d="M0 0 C3.3 0 6.6 0 10 0 C10 4.95 10 9.9 10 15 C6.7 15 3.4 15 0 15 C0 10.05 0 5.1 0 0 Z " fill="#FFFFFF" transform="translate(360,90)"/>
<path d="M0 0 C3.3 0 6.6 0 10 0 C10 4.95 10 9.9 10 15 C6.7 15 3.4 15 0 15 C0 10.05 0 5.1 0 0 Z " fill="#FFFFFF" transform="translate(0,90)"/>
<path d="M0 0 C3.3 0 6.6 0 10 0 C10 4.95 10 9.9 10 15 C6.7 15 3.4 15 0 15 C0 10.05 0 5.1 0 0 Z " fill="#FFFFFF" transform="translate(360,60)"/>
<path d="M0 0 C3.3 0 6.6 0 10 0 C10 4.95 10 9.9 10 15 C6.7 15 3.4 15 0 15 C0 10.05 0 5.1 0 0 Z " fill="#FFFFFF" transform="translate(0,60)"/>
<path d="M0 0 C3.3 0 6.6 0 10 0 C10 4.95 10 9.9 10 15 C6.7 15 3.4 15 0 15 C0 10.05 0 5.1 0 0 Z " fill="#FFFFFF" transform="translate(360,30)"/>
<path d="M0 0 C3.3 0 6.6 0 10 0 C10 4.95 10 9.9 10 15 C6.7 15 3.4 15 0 15 C0 10.05 0 5.1 0 0 Z " fill="#CFD0CF" transform="translate(360,15)"/>
<path d="M0 0 C3.3 0 6.6 0 10 0 C10 4.95 10 9.9 10 15 C6.7 15 3.4 15 0 15 C0 10.05 0 5.1 0 0 Z " fill="#FFFFFF" transform="translate(360,0)"/>
<path d="M0 0 C4.95 0 9.9 0 15 0 C15 3.63 15 7.26 15 11 C12.87439563 10.69163768 10.74952935 10.37818386 8.625 10.0625 C7.44164062 9.88847656 6.25828125 9.71445312 5.0390625 9.53515625 C2 9 2 9 0 8 C0 5.36 0 2.72 0 0 Z " fill="#FDFDFC" transform="translate(165,15)"/>
<path d="M0 0 C4.95 0 9.9 0 15 0 C15 3.63 15 7.26 15 11 C7.575 10.01 7.575 10.01 0 9 C0 6.03 0 3.06 0 0 Z " fill="#CED1CC" transform="translate(255,30)"/>
<path d="M0 0 C4.95 0 9.9 0 15 0 C15 3.3 15 6.6 15 10 C12.68715544 9.85973717 10.37472409 9.71264442 8.0625 9.5625 C6.13083984 9.44068359 6.13083984 9.44068359 4.16015625 9.31640625 C1 9 1 9 0 8 C-0.14115161 5.32941149 -0.04247107 2.67567762 0 0 Z " fill="#FCFDFC" transform="translate(345,45)"/>
<path d="M0 0 C0 3.3 0 6.6 0 10 C-4.95 10 -9.9 10 -15 10 C-15 7.36 -15 4.72 -15 2 C-12.87528825 1.6648342 -10.75022095 1.33192171 -8.625 1 C-7.44164062 0.814375 -6.25828125 0.62875 -5.0390625 0.4375 C-2 0 -2 0 0 0 Z " fill="#CDD0CC" transform="translate(165,410)"/>
<path d="M0 0 C0 3.3 0 6.6 0 10 C-4.95 10 -9.9 10 -15 10 C-15 7.36 -15 4.72 -15 2 C-12.87528825 1.6648342 -10.75022095 1.33192171 -8.625 1 C-7.44164062 0.814375 -6.25828125 0.62875 -5.0390625 0.4375 C-2 0 -2 0 0 0 Z " fill="#FDFDFD" transform="translate(255,395)"/>
<path d="M0 0 C0 2.97 0 5.94 0 9 C-4.95 9 -9.9 9 -15 9 C-15 6.69 -15 4.38 -15 2 C-9.78757146 -0.13843222 -5.54518774 -0.16803599 0 0 Z " fill="#FCFDFC" transform="translate(75,426)"/>
<path d="M0 0 C4.95 0 9.9 0 15 0 C15 2.64 15 5.28 15 8 C15.66 8.33 16.32 8.66 17 9 C14.54104382 8.69188262 12.08291693 8.37871012 9.625 8.0625 C8.92632812 7.97548828 8.22765625 7.88847656 7.5078125 7.79882812 C2.2265625 7.11328125 2.2265625 7.11328125 0 6 C0 4.02 0 2.04 0 0 Z " fill="#CED1CD" transform="translate(150,15)"/>
<path d="M0 0 C4.95 0 9.9 0 15 0 C15 2.64 15 5.28 15 8 C13.06215735 7.85879286 11.12473045 7.71187127 9.1875 7.5625 C8.10855469 7.48128906 7.02960938 7.40007813 5.91796875 7.31640625 C3 7 3 7 0 6 C0 4.02 0 2.04 0 0 Z " fill="#FAFBFA" transform="translate(240,30)"/>
<path d="M0 0 C4.95 0 9.9 0 15 0 C15 2.31 15 4.62 15 7 C10.05 7 5.1 7 0 7 C0 4.69 0 2.38 0 0 Z " fill="#FFFFFF" transform="translate(345,435)"/>
<path d="M0 0 C4.95 0 9.9 0 15 0 C15 2.31 15 4.62 15 7 C10.05 7 5.1 7 0 7 C0 4.69 0 2.38 0 0 Z " fill="#CFD0CF" transform="translate(330,435)"/>
<path d="M0 0 C4.95 0 9.9 0 15 0 C15 2.31 15 4.62 15 7 C10.05 7 5.1 7 0 7 C0 4.69 0 2.38 0 0 Z " fill="#FFFFFF" transform="translate(315,435)"/>
<path d="M0 0 C4.95 0 9.9 0 15 0 C15 2.31 15 4.62 15 7 C10.05 7 5.1 7 0 7 C0 4.69 0 2.38 0 0 Z " fill="#CFD0CF" transform="translate(300,435)"/>
<path d="M0 0 C4.95 0 9.9 0 15 0 C15 2.31 15 4.62 15 7 C10.05 7 5.1 7 0 7 C0 4.69 0 2.38 0 0 Z " fill="#FFFFFF" transform="translate(285,435)"/>
<path d="M0 0 C4.95 0 9.9 0 15 0 C15 2.31 15 4.62 15 7 C10.05 7 5.1 7 0 7 C0 4.69 0 2.38 0 0 Z " fill="#CFD0CF" transform="translate(270,435)"/>
<path d="M0 0 C4.95 0 9.9 0 15 0 C15 2.31 15 4.62 15 7 C10.05 7 5.1 7 0 7 C0 4.69 0 2.38 0 0 Z " fill="#FFFFFF" transform="translate(255,435)"/>
<path d="M0 0 C4.95 0 9.9 0 15 0 C15 2.31 15 4.62 15 7 C10.05 7 5.1 7 0 7 C0 4.69 0 2.38 0 0 Z " fill="#CFD0CF" transform="translate(240,435)"/>
<path d="M0 0 C4.95 0 9.9 0 15 0 C15 2.31 15 4.62 15 7 C10.05 7 5.1 7 0 7 C0 4.69 0 2.38 0 0 Z " fill="#FFFFFF" transform="translate(225,435)"/>
<path d="M0 0 C4.95 0 9.9 0 15 0 C15 2.31 15 4.62 15 7 C10.05 7 5.1 7 0 7 C0 4.69 0 2.38 0 0 Z " fill="#CFD0CF" transform="translate(210,435)"/>
<path d="M0 0 C4.95 0 9.9 0 15 0 C15 2.31 15 4.62 15 7 C10.05 7 5.1 7 0 7 C0 4.69 0 2.38 0 0 Z " fill="#FFFFFF" transform="translate(195,435)"/>
<path d="M0 0 C4.95 0 9.9 0 15 0 C15 2.31 15 4.62 15 7 C10.05 7 5.1 7 0 7 C0 4.69 0 2.38 0 0 Z " fill="#CFD0CF" transform="translate(180,435)"/>
<path d="M0 0 C4.95 0 9.9 0 15 0 C15 2.31 15 4.62 15 7 C10.05 7 5.1 7 0 7 C0 4.69 0 2.38 0 0 Z " fill="#FFFFFF" transform="translate(165,435)"/>
<path d="M0 0 C4.95 0 9.9 0 15 0 C15 2.31 15 4.62 15 7 C10.05 7 5.1 7 0 7 C0 4.69 0 2.38 0 0 Z " fill="#CFD0CF" transform="translate(150,435)"/>
<path d="M0 0 C4.95 0 9.9 0 15 0 C15 2.31 15 4.62 15 7 C10.05 7 5.1 7 0 7 C0 4.69 0 2.38 0 0 Z " fill="#FFFFFF" transform="translate(135,435)"/>
<path d="M0 0 C4.95 0 9.9 0 15 0 C15 2.31 15 4.62 15 7 C10.05 7 5.1 7 0 7 C0 4.69 0 2.38 0 0 Z " fill="#CFD0CF" transform="translate(120,435)"/>
<path d="M0 0 C4.95 0 9.9 0 15 0 C15 2.31 15 4.62 15 7 C10.05 7 5.1 7 0 7 C0 4.69 0 2.38 0 0 Z " fill="#FFFFFF" transform="translate(105,435)"/>
<path d="M0 0 C4.95 0 9.9 0 15 0 C15 2.31 15 4.62 15 7 C10.05 7 5.1 7 0 7 C0 4.69 0 2.38 0 0 Z " fill="#CFD0CF" transform="translate(90,435)"/>
<path d="M0 0 C4.95 0 9.9 0 15 0 C15 2.31 15 4.62 15 7 C10.05 7 5.1 7 0 7 C0 4.69 0 2.38 0 0 Z " fill="#FFFFFF" transform="translate(75,435)"/>
<path d="M0 0 C4.95 0 9.9 0 15 0 C15 2.31 15 4.62 15 7 C10.05 7 5.1 7 0 7 C0 4.69 0 2.38 0 0 Z " fill="#CFD0CF" transform="translate(60,435)"/>
<path d="M0 0 C4.95 0 9.9 0 15 0 C15 2.31 15 4.62 15 7 C10.05 7 5.1 7 0 7 C0 4.69 0 2.38 0 0 Z " fill="#FFFFFF" transform="translate(45,435)"/>
<path d="M0 0 C4.95 0 9.9 0 15 0 C15 2.31 15 4.62 15 7 C10.05 7 5.1 7 0 7 C0 4.69 0 2.38 0 0 Z " fill="#CFD0CF" transform="translate(30,435)"/>
<path d="M0 0 C4.95 0 9.9 0 15 0 C15 2.31 15 4.62 15 7 C10.05 7 5.1 7 0 7 C0 4.69 0 2.38 0 0 Z " fill="#FFFFFF" transform="translate(15,435)"/>
<path d="M0 0 C4.95 0 9.9 0 15 0 C15 2.31 15 4.62 15 7 C10.05 7 5.1 7 0 7 C0 4.69 0 2.38 0 0 Z " fill="#CFD0CF" transform="translate(0,435)"/>
<path d="M0 0 C4.95 0 9.9 0 15 0 C15 2.64 15 5.28 15 8 C9.39 7.34 3.78 6.68 -2 6 C-1.34 5.67 -0.68 5.34 0 5 C0 3.35 0 1.7 0 0 Z " fill="#CDD1CB" transform="translate(330,45)"/>
<path d="M0 0 C1.74506836 0.00966797 1.74506836 0.00966797 3.52539062 0.01953125 C4.74033203 0.03628906 5.95527344 0.05304687 7.20703125 0.0703125 C8.43357422 0.07933594 9.66011719 0.08835937 10.92382812 0.09765625 C13.9559242 0.12125233 16.98763063 0.15417409 20.01953125 0.1953125 C20.01953125 2.1753125 20.01953125 4.1553125 20.01953125 6.1953125 C10.32406032 5.02538404 0.66300115 3.74751485 -8.98046875 2.1953125 C-5.48710057 -0.13359962 -4.1203901 -0.04019893 0 0 Z " fill="#FCFCFB" transform="translate(129.98046875,14.8046875)"/>
<path d="M0 0 C0 2.64 0 5.28 0 8 C-4.95 8 -9.9 8 -15 8 C-15 3 -15 3 -14 2 C-12.52603261 1.79231771 -11.0450874 1.63283983 -9.5625 1.5 C-6.15241688 1.19347568 -3.35908704 0 0 0 Z " fill="#FAFBFA" transform="translate(330,382)"/>
<path d="M0 0 C0 2.31 0 4.62 0 7 C-4.95 7 -9.9 7 -15 7 C-15 5.68 -15 4.36 -15 3 C-15.99 2.67 -16.98 2.34 -18 2 C-16.12612523 1.6603981 -14.25083303 1.32861309 -12.375 1 C-11.33085937 0.814375 -10.28671875 0.62875 -9.2109375 0.4375 C-6.09425135 0.01284203 -3.14069188 -0.07545206 0 0 Z " fill="#CED1CC" transform="translate(240,398)"/>
<path d="M0 0 C0 2.31 0 4.62 0 7 C-4.95 7 -9.9 7 -15 7 C-15 5.68 -15 4.36 -15 3 C-15.66 2.67 -16.32 2.34 -17 2 C-15.10507994 1.66151348 -13.20901534 1.32943089 -11.3125 1 C-9.72888672 0.7215625 -9.72888672 0.7215625 -8.11328125 0.4375 C-5.35095938 0.04931926 -2.78257957 -0.08259976 0 0 Z " fill="#CCD1CA" transform="translate(60,428)"/>
<path d="M0 0 C0 2.31 0 4.62 0 7 C-4.95 7 -9.9 7 -15 7 C-15 5.35 -15 3.7 -15 2 C-13.43883181 1.66048381 -11.87598662 1.32867456 -10.3125 1 C-9.44238281 0.814375 -8.57226562 0.62875 -7.67578125 0.4375 C-5.06287036 0.01027953 -2.64186962 -0.07616201 0 0 Z " fill="#FCFCFC" transform="translate(150,413)"/>
<path d="M0 0 C1.05960938 0.00676758 1.05960938 0.00676758 2.140625 0.01367188 C3.88545275 0.02546125 5.630237 0.04339676 7.375 0.0625 C7.375 0.3925 7.375 0.7225 7.375 1.0625 C6.35921875 1.14886719 5.3434375 1.23523438 4.296875 1.32421875 C-4.77935719 2.20927308 -12.36779188 3.96019278 -20.625 8.0625 C-21.39328125 8.4440625 -22.1615625 8.825625 -22.953125 9.21875 C-23.50484375 9.4971875 -24.0565625 9.775625 -24.625 10.0625 C-24.625 7.4225 -24.625 4.7825 -24.625 2.0625 C-23.03558594 1.97162109 -23.03558594 1.97162109 -21.4140625 1.87890625 C-20.02602779 1.79449873 -18.63800768 1.70985083 -17.25 1.625 C-16.55132812 1.58568359 -15.85265625 1.54636719 -15.1328125 1.50585938 C-9.87714698 1.17738028 -5.34213174 -0.06406616 0 0 Z " fill="#C2CDC3" transform="translate(54.625,12.9375)"/>
<path d="M0 0 C3.3 0 6.6 0 10 0 C10 2.31 10 4.62 10 7 C6.7 7 3.4 7 0 7 C0 4.69 0 2.38 0 0 Z " fill="#CFD0CF" transform="translate(360,435)"/>
<path d="M0 0 C0 1.32 0 2.64 0 4 C-8.91 4 -17.82 4 -27 4 C-27 3.67 -27 3.34 -27 3 C-23.813827 2.49129467 -20.62588525 1.99463419 -17.4375 1.5 C-16.54224609 1.35691406 -15.64699219 1.21382813 -14.72460938 1.06640625 C-9.74996352 0.30107612 -5.03260643 -0.16568252 0 0 Z " fill="#EDF1EB" transform="translate(225,401)"/>
<path d="M0 0 C4.95 0 9.9 0 15 0 C15 1.98 15 3.96 15 6 C7.575 5.01 7.575 5.01 0 4 C0 2.68 0 1.36 0 0 Z " fill="#CDD1CB" transform="translate(225,30)"/>
<path d="M0 0 C4.95 0 9.9 0 15 0 C15 1.65 15 3.3 15 5 C8.07 4.505 8.07 4.505 1 4 C0.67 2.68 0.34 1.36 0 0 Z " fill="#F9FAF7" transform="translate(315,45)"/>
<path d="M0 0 C0.66 0 1.32 0 2 0 C2 4.95 2 9.9 2 15 C-0.31 15 -2.62 15 -5 15 C-3.35 10.05 -1.7 5.1 0 0 Z " fill="#F8FAF7" transform="translate(358,345)"/>
<path d="M0 0 C4.8989018 2.4494509 7.60256336 5.81246181 11 10 C7.37 10 3.74 10 0 10 C0 6.7 0 3.4 0 0 Z " fill="#F8FAF7" transform="translate(15,410)"/>
<path d="M0 0 C-1 2 -1 2 -2.96875 2.8515625 C-8.87525203 4.65632701 -13.82789056 5.29865046 -20 5 C-20 4.34 -20 3.68 -20 3 C-13.21256822 0.18447274 -7.31110994 -0.3689719 0 0 Z " fill="#096225" transform="translate(321,279)"/>
<path d="M0 0 C2.64 0 5.28 0 8 0 C6.85865673 2.00256574 5.71181367 4.00199797 4.5625 6 C3.60537109 7.670625 3.60537109 7.670625 2.62890625 9.375 C2.09136719 10.24125 1.55382812 11.1075 1 12 C0.67 12 0.34 12 0 12 C0 8.04 0 4.08 0 0 Z " fill="#C6CEC7" transform="translate(15,30)"/>
<path d="M0 0 C1.49080078 0.02707031 1.49080078 0.02707031 3.01171875 0.0546875 C3.77097656 0.07789063 4.53023437 0.10109375 5.3125 0.125 C5.6425 1.445 5.9725 2.765 6.3125 4.125 C-1.1125 3.135 -1.1125 3.135 -8.6875 2.125 C-5.26655758 -0.15562828 -4.00562778 -0.09425007 0 0 Z " fill="#CCD2C8" transform="translate(129.6875,14.875)"/>
<path d="M0 0 C4.95 0 9.9 0 15 0 C15 0.99 15 1.98 15 3 C12.87436897 2.88623383 10.7494739 2.75864369 8.625 2.625 C7.44164062 2.55539063 6.25828125 2.48578125 5.0390625 2.4140625 C2 2 2 2 0 0 Z " fill="#F5F8F4" transform="translate(210,30)"/>
<path d="M0 0 C0 0.99 0 1.98 0 3 C-3.63 2.67 -7.26 2.34 -11 2 C-6.78370866 -0.10814567 -4.60209225 -0.17700355 0 0 Z " fill="#C9D2C3" transform="translate(315,45)"/>
<path d="M0 0 C-1.5830577 4.2742558 -4.50568404 6.26531794 -8 9 C-6.68994234 5.06982701 -4.75047804 0 0 0 Z " fill="#1A6C32" transform="translate(30,24)"/>
</svg>
